<svg width="24" height="24" viewBox="0 0 24 24" fill="none" xmlns="http://www.w3.org/2000/svg">
<rect width="24" height="24" rx="12" fill="#2A4BA0"/>
<g clip-path="url(#clip0_2_7213)">
<path d="M15.5 11.5H12.5V8.5C12.5 8.36739 12.4473 8.24021 12.3536 8.14645C12.2598 8.05268 12.1326 8 12 8C11.8674 8 11.7402 8.05268 11.6464 8.14645C11.5527 8.24021 11.5 8.36739 11.5 8.5V11.5H8.5C8.36739 11.5 8.24021 11.5527 8.14645 11.6464C8.05268 11.7402 8 11.8674 8 12C8 12.1326 8.05268 12.2598 8.14645 12.3536C8.24021 12.4473 8.36739 12.5 8.5 12.5H11.5V15.5C11.5 15.6326 11.5527 15.7598 11.6464 15.8536C11.7402 15.9473 11.8674 16 12 16C12.1326 16 12.2598 15.9473 12.3536 15.8536C12.4473 15.7598 12.5 15.6326 12.5 15.5V12.5H15.5C15.6326 12.5 15.7598 12.4473 15.8536 12.3536C15.9473 12.2598 16 12.1326 16 12C16 11.8674 15.9473 11.7402 15.8536 11.6464C15.7598 11.5527 15.6326 11.5 15.5 11.5Z" fill="white"/>
</g>
<defs>
<clipPath id="clip0_2_7213">
<rect width="12" height="12" fill="white" transform="translate(6 6)"/>
</clipPath>
</defs>
</svg>
