<svg width="375" height="291" viewBox="0 0 375 291" fill="none" xmlns="http://www.w3.org/2000/svg">
<rect y="242" width="376" height="49" fill="#F9B023"/>
<path d="M335 49H305L324 70H292L305 89L249 99" stroke="#1E222B" stroke-width="2"/>
<path d="M50.1 179H63L81.6 109.7H140.4L122.1 179H135L153.6 109.7H219L222.3 97.1H156.9L172.2 40.4H237.6L240.9 27.8H175.5L192.9 -37H179.7L162.6 27.8H103.5L120.9 -37H107.7L90.6 27.8H24.9L21.6 40.4H87L72 97.1H6.3L3 109.7H68.4L50.1 179ZM84.9 97.1L100.2 40.4H159L144 97.1H84.9Z" fill="#F9B023"/>
<path d="M304.306 125.21C303.298 125.21 302.428 124.991 301.695 124.552C300.967 124.113 300.405 123.5 300.008 122.711C299.616 121.922 299.42 121.005 299.42 119.96C299.42 118.915 299.616 117.998 300.008 117.209C300.405 116.42 300.967 115.807 301.695 115.368C302.428 114.929 303.298 114.71 304.306 114.71C305.314 114.71 306.182 114.929 306.91 115.368C307.643 115.807 308.205 116.42 308.597 117.209C308.994 117.998 309.192 118.915 309.192 119.96C309.192 121.005 308.994 121.922 308.597 122.711C308.205 123.5 307.643 124.113 306.91 124.552C306.182 124.991 305.314 125.21 304.306 125.21ZM304.306 123.418C304.945 123.427 305.477 123.29 305.902 123.005C306.327 122.72 306.644 122.317 306.854 121.794C307.069 121.271 307.176 120.66 307.176 119.96C307.176 119.26 307.069 118.653 306.854 118.14C306.644 117.627 306.327 117.228 305.902 116.943C305.477 116.658 304.945 116.511 304.306 116.502C303.667 116.493 303.135 116.63 302.71 116.915C302.285 117.2 301.966 117.603 301.751 118.126C301.541 118.649 301.436 119.26 301.436 119.96C301.436 120.66 301.541 121.267 301.751 121.78C301.966 122.293 302.285 122.692 302.71 122.977C303.135 123.262 303.667 123.409 304.306 123.418ZM310.589 125V114.92H316.749V116.824H312.493V119.008H315.909V120.912H312.493V125H310.589ZM318.013 125V114.92H324.173V116.824H319.917V119.008H323.333V120.912H319.917V125H318.013ZM326.137 125V123.32H328.041V125H326.137ZM326.137 122.48V114.92H328.041V122.48H326.137ZM331.401 125V123.32H333.305V125H331.401ZM331.401 122.48V114.92H333.305V122.48H331.401Z" fill="#FAFBFD"/>
<path d="M118.5 214.89V201.91L151.72 172.43C154.213 170.23 155.973 168.158 157 166.215C158.027 164.272 158.54 162.457 158.54 160.77C158.54 158.35 158.045 156.205 157.055 154.335C156.065 152.428 154.672 150.943 152.875 149.88C151.078 148.78 148.97 148.23 146.55 148.23C144.02 148.23 141.783 148.817 139.84 149.99C137.933 151.127 136.448 152.648 135.385 154.555C134.322 156.425 133.827 158.46 133.9 160.66H118.5C118.5 155.233 119.692 150.54 122.075 146.58C124.458 142.62 127.777 139.558 132.03 137.395C136.283 135.232 141.233 134.15 146.88 134.15C152.05 134.15 156.67 135.287 160.74 137.56C164.847 139.797 168.073 142.932 170.42 146.965C172.767 150.998 173.94 155.673 173.94 160.99C173.94 164.913 173.39 168.177 172.29 170.78C171.19 173.347 169.558 175.73 167.395 177.93C165.232 180.093 162.573 182.55 159.42 185.3L137.97 204.11L136.76 200.81H173.94V214.89H118.5ZM210.627 216.65C206.63 216.65 202.872 215.825 199.352 214.175C195.868 212.525 192.862 210.233 190.332 207.3C187.802 204.367 185.987 200.957 184.887 197.07L199.297 193.22C199.773 195.09 200.617 196.703 201.827 198.06C203.073 199.417 204.503 200.48 206.117 201.25C207.767 201.983 209.453 202.35 211.177 202.35C213.45 202.35 215.522 201.8 217.392 200.7C219.298 199.6 220.802 198.115 221.902 196.245C223.038 194.375 223.607 192.303 223.607 190.03C223.607 187.757 223.038 185.685 221.902 183.815C220.802 181.945 219.298 180.46 217.392 179.36C215.522 178.26 213.45 177.71 211.177 177.71C208.39 177.71 206.117 178.187 204.357 179.14C202.597 180.057 201.277 180.937 200.397 181.78L187.747 177.93L190.167 135.8H233.397V149.77H198.417L203.697 144.82L202.047 171.99L199.517 168.91C201.497 167.297 203.752 166.123 206.282 165.39C208.812 164.657 211.177 164.29 213.377 164.29C218.363 164.29 222.745 165.408 226.522 167.645C230.335 169.845 233.305 172.888 235.432 176.775C237.595 180.625 238.677 185.043 238.677 190.03C238.677 195.017 237.375 199.527 234.772 203.56C232.168 207.557 228.74 210.747 224.487 213.13C220.233 215.477 215.613 216.65 210.627 216.65ZM263.962 215L254.062 205.1L323.362 135.8L333.262 145.81L263.962 215ZM316.762 216.65C313.132 216.65 309.814 215.77 306.807 214.01C303.837 212.213 301.454 209.83 299.657 206.86C297.86 203.853 296.962 200.517 296.962 196.85C296.962 193.257 297.879 189.957 299.712 186.95C301.545 183.943 303.965 181.542 306.972 179.745C309.979 177.948 313.242 177.05 316.762 177.05C320.392 177.05 323.71 177.948 326.717 179.745C329.724 181.505 332.107 183.888 333.867 186.895C335.664 189.865 336.562 193.183 336.562 196.85C336.562 200.517 335.664 203.853 333.867 206.86C332.107 209.83 329.724 212.213 326.717 214.01C323.71 215.77 320.392 216.65 316.762 216.65ZM316.762 204C318.045 204 319.219 203.67 320.282 203.01C321.382 202.35 322.262 201.488 322.922 200.425C323.582 199.325 323.912 198.133 323.912 196.85C323.912 195.567 323.582 194.393 322.922 193.33C322.262 192.23 321.382 191.35 320.282 190.69C319.219 190.03 318.045 189.7 316.762 189.7C315.479 189.7 314.287 190.03 313.187 190.69C312.124 191.35 311.262 192.23 310.602 193.33C309.942 194.393 309.612 195.567 309.612 196.85C309.612 198.133 309.942 199.325 310.602 200.425C311.262 201.488 312.124 202.35 313.187 203.01C314.287 203.67 315.479 204 316.762 204ZM270.562 173.75C266.932 173.75 263.614 172.87 260.607 171.11C257.6 169.313 255.199 166.93 253.402 163.96C251.642 160.953 250.762 157.617 250.762 153.95C250.762 150.357 251.679 147.057 253.512 144.05C255.345 141.043 257.765 138.642 260.772 136.845C263.779 135.048 267.042 134.15 270.562 134.15C274.192 134.15 277.492 135.048 280.462 136.845C283.469 138.605 285.87 140.988 287.667 143.995C289.464 146.965 290.362 150.283 290.362 153.95C290.362 157.617 289.464 160.953 287.667 163.96C285.87 166.93 283.469 169.313 280.462 171.11C277.492 172.87 274.192 173.75 270.562 173.75ZM270.562 161.1C271.845 161.1 273.019 160.77 274.082 160.11C275.182 159.45 276.062 158.588 276.722 157.525C277.382 156.425 277.712 155.233 277.712 153.95C277.712 152.667 277.382 151.493 276.722 150.43C276.062 149.33 275.182 148.45 274.082 147.79C273.019 147.13 271.845 146.8 270.562 146.8C269.279 146.8 268.087 147.13 266.987 147.79C265.924 148.45 265.062 149.33 264.402 150.43C263.742 151.493 263.412 152.667 263.412 153.95C263.412 155.233 263.742 156.425 264.402 157.525C265.062 158.588 265.924 159.45 266.987 160.11C268.087 160.77 269.279 161.1 270.562 161.1Z" fill="#FAFBFD"/>
<path d="M33.656 260.848V267.904C33.656 268.896 33.896 269.632 34.376 270.112C34.8667 270.592 35.544 270.832 36.408 270.832C37.2613 270.832 37.928 270.592 38.408 270.112C38.8987 269.632 39.144 268.896 39.144 267.904V260.848H40.6V267.888C40.6 268.816 40.4133 269.6 40.04 270.24C39.6667 270.869 39.16 271.339 38.52 271.648C37.8907 271.957 37.1813 272.112 36.392 272.112C35.6027 272.112 34.888 271.957 34.248 271.648C33.6187 271.339 33.1173 270.869 32.744 270.24C32.3813 269.6 32.2 268.816 32.2 267.888V260.848H33.656ZM46.1329 272.144C45.4609 272.144 44.8582 272.032 44.3249 271.808C43.7915 271.573 43.3702 271.253 43.0609 270.848C42.7515 270.432 42.5809 269.957 42.5489 269.424H44.0529C44.0955 269.861 44.2982 270.219 44.6609 270.496C45.0342 270.773 45.5195 270.912 46.1169 270.912C46.6715 270.912 47.1089 270.789 47.4289 270.544C47.7489 270.299 47.9089 269.989 47.9089 269.616C47.9089 269.232 47.7382 268.949 47.3969 268.768C47.0555 268.576 46.5275 268.389 45.8129 268.208C45.1622 268.037 44.6289 267.867 44.2129 267.696C43.8075 267.515 43.4555 267.253 43.1569 266.912C42.8689 266.56 42.7249 266.101 42.7249 265.536C42.7249 265.088 42.8582 264.677 43.1249 264.304C43.3915 263.931 43.7702 263.637 44.2609 263.424C44.7515 263.2 45.3115 263.088 45.9409 263.088C46.9115 263.088 47.6955 263.333 48.2929 263.824C48.8902 264.315 49.2102 264.987 49.2529 265.84H47.7969C47.7649 265.381 47.5782 265.013 47.2369 264.736C46.9062 264.459 46.4582 264.32 45.8929 264.32C45.3702 264.32 44.9542 264.432 44.6449 264.656C44.3355 264.88 44.1809 265.173 44.1809 265.536C44.1809 265.824 44.2715 266.064 44.4529 266.256C44.6449 266.437 44.8795 266.587 45.1569 266.704C45.4449 266.811 45.8395 266.933 46.3409 267.072C46.9702 267.243 47.4822 267.413 47.8769 267.584C48.2715 267.744 48.6075 267.989 48.8849 268.32C49.1729 268.651 49.3222 269.083 49.3329 269.616C49.3329 270.096 49.1995 270.528 48.9329 270.912C48.6662 271.296 48.2875 271.6 47.7969 271.824C47.3169 272.037 46.7622 272.144 46.1329 272.144ZM59.3883 267.28C59.3883 267.557 59.3723 267.851 59.3403 268.16H52.3323C52.3856 269.024 52.6789 269.701 53.2123 270.192C53.7563 270.672 54.4123 270.912 55.1803 270.912C55.8096 270.912 56.3323 270.768 56.7483 270.48C57.1749 270.181 57.4736 269.787 57.6443 269.296H59.2123C58.9776 270.139 58.5083 270.827 57.8043 271.36C57.1003 271.883 56.2256 272.144 55.1803 272.144C54.3483 272.144 53.6016 271.957 52.9403 271.584C52.2896 271.211 51.7776 270.683 51.4043 270C51.0309 269.307 50.8443 268.507 50.8443 267.6C50.8443 266.693 51.0256 265.899 51.3883 265.216C51.7509 264.533 52.2576 264.011 52.9083 263.648C53.5696 263.275 54.3269 263.088 55.1803 263.088C56.0123 263.088 56.7483 263.269 57.3883 263.632C58.0283 263.995 58.5189 264.496 58.8603 265.136C59.2123 265.765 59.3883 266.48 59.3883 267.28ZM57.8843 266.976C57.8843 266.421 57.7616 265.947 57.5163 265.552C57.2709 265.147 56.9349 264.843 56.5083 264.64C56.0923 264.427 55.6283 264.32 55.1163 264.32C54.3803 264.32 53.7509 264.555 53.2283 265.024C52.7163 265.493 52.4229 266.144 52.3483 266.976H57.8843ZM65.0318 267.6C65.0318 266.693 65.2131 265.904 65.5758 265.232C65.9384 264.549 66.4398 264.021 67.0798 263.648C67.7304 263.275 68.4718 263.088 69.3038 263.088C70.3811 263.088 71.2664 263.349 71.9598 263.872C72.6638 264.395 73.1278 265.12 73.3518 266.048H71.7838C71.6344 265.515 71.3411 265.093 70.9038 264.784C70.4771 264.475 69.9438 264.32 69.3038 264.32C68.4718 264.32 67.7998 264.608 67.2878 265.184C66.7758 265.749 66.5198 266.555 66.5198 267.6C66.5198 268.656 66.7758 269.472 67.2878 270.048C67.7998 270.624 68.4718 270.912 69.3038 270.912C69.9438 270.912 70.4771 270.763 70.9038 270.464C71.3304 270.165 71.6238 269.739 71.7838 269.184H73.3518C73.1171 270.08 72.6478 270.8 71.9438 271.344C71.2398 271.877 70.3598 272.144 69.3038 272.144C68.4718 272.144 67.7304 271.957 67.0798 271.584C66.4398 271.211 65.9384 270.683 65.5758 270C65.2131 269.317 65.0318 268.517 65.0318 267.6ZM79.1185 272.144C78.2972 272.144 77.5505 271.957 76.8785 271.584C76.2172 271.211 75.6945 270.683 75.3105 270C74.9372 269.307 74.7505 268.507 74.7505 267.6C74.7505 266.704 74.9425 265.915 75.3265 265.232C75.7212 264.539 76.2545 264.011 76.9265 263.648C77.5985 263.275 78.3505 263.088 79.1825 263.088C80.0145 263.088 80.7665 263.275 81.4385 263.648C82.1105 264.011 82.6385 264.533 83.0225 265.216C83.4172 265.899 83.6145 266.693 83.6145 267.6C83.6145 268.507 83.4118 269.307 83.0065 270C82.6118 270.683 82.0732 271.211 81.3905 271.584C80.7078 271.957 79.9505 272.144 79.1185 272.144ZM79.1185 270.864C79.6412 270.864 80.1318 270.741 80.5905 270.496C81.0492 270.251 81.4172 269.883 81.6945 269.392C81.9825 268.901 82.1265 268.304 82.1265 267.6C82.1265 266.896 81.9878 266.299 81.7105 265.808C81.4332 265.317 81.0705 264.955 80.6225 264.72C80.1745 264.475 79.6892 264.352 79.1665 264.352C78.6332 264.352 78.1425 264.475 77.6945 264.72C77.2572 264.955 76.9052 265.317 76.6385 265.808C76.3718 266.299 76.2385 266.896 76.2385 267.6C76.2385 268.315 76.3665 268.917 76.6225 269.408C76.8892 269.899 77.2412 270.267 77.6785 270.512C78.1158 270.747 78.5958 270.864 79.1185 270.864ZM84.9849 267.584C84.9849 266.688 85.1662 265.904 85.5289 265.232C85.8915 264.549 86.3875 264.021 87.0169 263.648C87.6569 263.275 88.3715 263.088 89.1609 263.088C89.8435 263.088 90.4782 263.248 91.0649 263.568C91.6515 263.877 92.0995 264.288 92.4089 264.8V260.16H93.8809V272H92.4089V270.352C92.1209 270.875 91.6942 271.307 91.1289 271.648C90.5635 271.979 89.9022 272.144 89.1449 272.144C88.3662 272.144 87.6569 271.952 87.0169 271.568C86.3875 271.184 85.8915 270.645 85.5289 269.952C85.1662 269.259 84.9849 268.469 84.9849 267.584ZM92.4089 267.6C92.4089 266.939 92.2755 266.363 92.0089 265.872C91.7422 265.381 91.3795 265.008 90.9209 264.752C90.4729 264.485 89.9769 264.352 89.4329 264.352C88.8889 264.352 88.3929 264.48 87.9449 264.736C87.4969 264.992 87.1395 265.365 86.8729 265.856C86.6062 266.347 86.4729 266.923 86.4729 267.584C86.4729 268.256 86.6062 268.843 86.8729 269.344C87.1395 269.835 87.4969 270.213 87.9449 270.48C88.3929 270.736 88.8889 270.864 89.4329 270.864C89.9769 270.864 90.4729 270.736 90.9209 270.48C91.3795 270.213 91.7422 269.835 92.0089 269.344C92.2755 268.843 92.4089 268.261 92.4089 267.6ZM104.341 267.28C104.341 267.557 104.325 267.851 104.293 268.16H97.2854C97.3387 269.024 97.632 269.701 98.1654 270.192C98.7094 270.672 99.3654 270.912 100.133 270.912C100.763 270.912 101.285 270.768 101.701 270.48C102.128 270.181 102.427 269.787 102.597 269.296H104.165C103.931 270.139 103.461 270.827 102.757 271.36C102.053 271.883 101.179 272.144 100.133 272.144C99.3014 272.144 98.5547 271.957 97.8934 271.584C97.2427 271.211 96.7307 270.683 96.3574 270C95.984 269.307 95.7974 268.507 95.7974 267.6C95.7974 266.693 95.9787 265.899 96.3414 265.216C96.704 264.533 97.2107 264.011 97.8614 263.648C98.5227 263.275 99.28 263.088 100.133 263.088C100.965 263.088 101.701 263.269 102.341 263.632C102.981 263.995 103.472 264.496 103.813 265.136C104.165 265.765 104.341 266.48 104.341 267.28ZM102.837 266.976C102.837 266.421 102.715 265.947 102.469 265.552C102.224 265.147 101.888 264.843 101.461 264.64C101.045 264.427 100.581 264.32 100.069 264.32C99.3334 264.32 98.704 264.555 98.1814 265.024C97.6694 265.493 97.376 266.144 97.3014 266.976H102.837ZM119.716 264.672L119.124 267.44H121.236V269.04H118.788L118.148 272H116.404L117.044 269.04H113.908L113.268 272H111.524L112.164 269.04H109.684V267.44H112.5L113.092 264.672H110.628V263.072H113.428L114.052 260.16H115.796L115.172 263.072H118.308L118.932 260.16H120.676L120.052 263.072H122.18V264.672H119.716ZM117.972 264.672H114.836L114.244 267.44H117.38L117.972 264.672ZM133.221 260.88V272H131.397V267.136H126.165V272H124.341V260.88H126.165V265.648H131.397V260.88H133.221ZM135.014 267.552C135.014 266.667 135.195 265.883 135.558 265.2C135.931 264.517 136.433 263.989 137.062 263.616C137.702 263.232 138.406 263.04 139.174 263.04C139.867 263.04 140.47 263.179 140.982 263.456C141.505 263.723 141.921 264.059 142.23 264.464V263.184H144.07V272H142.23V270.688C141.921 271.104 141.499 271.451 140.966 271.728C140.433 272.005 139.825 272.144 139.142 272.144C138.385 272.144 137.691 271.952 137.062 271.568C136.433 271.173 135.931 270.629 135.558 269.936C135.195 269.232 135.014 268.437 135.014 267.552ZM142.23 267.584C142.23 266.976 142.102 266.448 141.846 266C141.601 265.552 141.275 265.211 140.87 264.976C140.465 264.741 140.027 264.624 139.558 264.624C139.089 264.624 138.651 264.741 138.246 264.976C137.841 265.2 137.51 265.536 137.254 265.984C137.009 266.421 136.886 266.944 136.886 267.552C136.886 268.16 137.009 268.693 137.254 269.152C137.51 269.611 137.841 269.963 138.246 270.208C138.662 270.443 139.099 270.56 139.558 270.56C140.027 270.56 140.465 270.443 140.87 270.208C141.275 269.973 141.601 269.632 141.846 269.184C142.102 268.725 142.23 268.192 142.23 267.584ZM148.29 260.16V272H146.466V260.16H148.29ZM150.076 267.552C150.076 266.667 150.258 265.883 150.62 265.2C150.994 264.517 151.495 263.989 152.124 263.616C152.764 263.232 153.468 263.04 154.236 263.04C154.93 263.04 155.532 263.179 156.044 263.456C156.567 263.723 156.983 264.059 157.292 264.464V263.184H159.132V272H157.292V270.688C156.983 271.104 156.562 271.451 156.028 271.728C155.495 272.005 154.887 272.144 154.204 272.144C153.447 272.144 152.754 271.952 152.124 271.568C151.495 271.173 150.994 270.629 150.62 269.936C150.258 269.232 150.076 268.437 150.076 267.552ZM157.292 267.584C157.292 266.976 157.164 266.448 156.908 266C156.663 265.552 156.338 265.211 155.932 264.976C155.527 264.741 155.09 264.624 154.62 264.624C154.151 264.624 153.714 264.741 153.308 264.976C152.903 265.2 152.572 265.536 152.316 265.984C152.071 266.421 151.948 266.944 151.948 267.552C151.948 268.16 152.071 268.693 152.316 269.152C152.572 269.611 152.903 269.963 153.308 270.208C153.724 270.443 154.162 270.56 154.62 270.56C155.09 270.56 155.527 270.443 155.932 270.208C156.338 269.973 156.663 269.632 156.908 269.184C157.164 268.725 157.292 268.192 157.292 267.584ZM163.352 260.16V272H161.528V260.16H163.352ZM172.291 260.88V262.368H167.571V265.648H171.251V267.136H167.571V272H165.747V260.88H172.291ZM177.805 272.144C176.973 272.144 176.221 271.957 175.549 271.584C174.877 271.2 174.349 270.667 173.965 269.984C173.581 269.291 173.389 268.491 173.389 267.584C173.389 266.688 173.587 265.893 173.981 265.2C174.376 264.507 174.915 263.973 175.597 263.6C176.28 263.227 177.043 263.04 177.885 263.04C178.728 263.04 179.491 263.227 180.173 263.6C180.856 263.973 181.395 264.507 181.789 265.2C182.184 265.893 182.381 266.688 182.381 267.584C182.381 268.48 182.179 269.275 181.773 269.968C181.368 270.661 180.813 271.2 180.109 271.584C179.416 271.957 178.648 272.144 177.805 272.144ZM177.805 270.56C178.275 270.56 178.712 270.448 179.117 270.224C179.533 270 179.869 269.664 180.125 269.216C180.381 268.768 180.509 268.224 180.509 267.584C180.509 266.944 180.387 266.405 180.141 265.968C179.896 265.52 179.571 265.184 179.165 264.96C178.76 264.736 178.323 264.624 177.853 264.624C177.384 264.624 176.947 264.736 176.541 264.96C176.147 265.184 175.832 265.52 175.597 265.968C175.363 266.405 175.245 266.944 175.245 267.584C175.245 268.533 175.485 269.269 175.965 269.792C176.456 270.304 177.069 270.56 177.805 270.56ZM188.008 272.144C187.176 272.144 186.424 271.957 185.752 271.584C185.08 271.2 184.552 270.667 184.168 269.984C183.784 269.291 183.592 268.491 183.592 267.584C183.592 266.688 183.79 265.893 184.184 265.2C184.579 264.507 185.118 263.973 185.8 263.6C186.483 263.227 187.246 263.04 188.088 263.04C188.931 263.04 189.694 263.227 190.376 263.6C191.059 263.973 191.598 264.507 191.992 265.2C192.387 265.893 192.584 266.688 192.584 267.584C192.584 268.48 192.382 269.275 191.976 269.968C191.571 270.661 191.016 271.2 190.312 271.584C189.619 271.957 188.851 272.144 188.008 272.144ZM188.008 270.56C188.478 270.56 188.915 270.448 189.32 270.224C189.736 270 190.072 269.664 190.328 269.216C190.584 268.768 190.712 268.224 190.712 267.584C190.712 266.944 190.59 266.405 190.344 265.968C190.099 265.52 189.774 265.184 189.368 264.96C188.963 264.736 188.526 264.624 188.056 264.624C187.587 264.624 187.15 264.736 186.744 264.96C186.35 265.184 186.035 265.52 185.8 265.968C185.566 266.405 185.448 266.944 185.448 267.584C185.448 268.533 185.688 269.269 186.168 269.792C186.659 270.304 187.272 270.56 188.008 270.56ZM193.78 267.552C193.78 266.667 193.961 265.883 194.324 265.2C194.697 264.517 195.198 263.989 195.828 263.616C196.468 263.232 197.177 263.04 197.956 263.04C198.532 263.04 199.097 263.168 199.652 263.424C200.217 263.669 200.665 264 200.996 264.416V260.16H202.836V272H200.996V270.672C200.697 271.099 200.281 271.451 199.748 271.728C199.225 272.005 198.622 272.144 197.94 272.144C197.172 272.144 196.468 271.952 195.828 271.568C195.198 271.173 194.697 270.629 194.324 269.936C193.961 269.232 193.78 268.437 193.78 267.552ZM200.996 267.584C200.996 266.976 200.868 266.448 200.612 266C200.366 265.552 200.041 265.211 199.636 264.976C199.23 264.741 198.793 264.624 198.324 264.624C197.854 264.624 197.417 264.741 197.012 264.976C196.606 265.2 196.276 265.536 196.02 265.984C195.774 266.421 195.652 266.944 195.652 267.552C195.652 268.16 195.774 268.693 196.02 269.152C196.276 269.611 196.606 269.963 197.012 270.208C197.428 270.443 197.865 270.56 198.324 270.56C198.793 270.56 199.23 270.443 199.636 270.208C200.041 269.973 200.366 269.632 200.612 269.184C200.868 268.725 200.996 268.192 200.996 267.584ZM208.876 267.584C208.876 266.688 209.057 265.904 209.42 265.232C209.782 264.549 210.278 264.021 210.908 263.648C211.548 263.275 212.257 263.088 213.036 263.088C213.804 263.088 214.47 263.253 215.036 263.584C215.601 263.915 216.022 264.331 216.3 264.832V263.232H217.772V272H216.3V270.368C216.012 270.88 215.58 271.307 215.004 271.648C214.438 271.979 213.777 272.144 213.02 272.144C212.241 272.144 211.537 271.952 210.908 271.568C210.278 271.184 209.782 270.645 209.42 269.952C209.057 269.259 208.876 268.469 208.876 267.584ZM216.3 267.6C216.3 266.939 216.166 266.363 215.9 265.872C215.633 265.381 215.27 265.008 214.812 264.752C214.364 264.485 213.868 264.352 213.324 264.352C212.78 264.352 212.284 264.48 211.836 264.736C211.388 264.992 211.03 265.365 210.764 265.856C210.497 266.347 210.364 266.923 210.364 267.584C210.364 268.256 210.497 268.843 210.764 269.344C211.03 269.835 211.388 270.213 211.836 270.48C212.284 270.736 212.78 270.864 213.324 270.864C213.868 270.864 214.364 270.736 214.812 270.48C215.27 270.213 215.633 269.835 215.9 269.344C216.166 268.843 216.3 268.261 216.3 267.6ZM222.008 264.432V269.6C222.008 270.027 222.099 270.331 222.28 270.512C222.461 270.683 222.776 270.768 223.224 270.768H224.296V272H222.984C222.173 272 221.565 271.813 221.16 271.44C220.755 271.067 220.552 270.453 220.552 269.6V264.432H219.416V263.232H220.552V261.024H222.008V263.232H224.296V264.432H222.008ZM229.782 266.416C229.782 265.328 230.027 264.352 230.518 263.488C231.008 262.613 231.675 261.931 232.518 261.44C233.371 260.949 234.315 260.704 235.35 260.704C236.566 260.704 237.627 260.997 238.534 261.584C239.44 262.171 240.102 263.003 240.518 264.08H238.774C238.464 263.408 238.016 262.891 237.43 262.528C236.854 262.165 236.16 261.984 235.35 261.984C234.571 261.984 233.872 262.165 233.254 262.528C232.635 262.891 232.15 263.408 231.798 264.08C231.446 264.741 231.27 265.52 231.27 266.416C231.27 267.301 231.446 268.08 231.798 268.752C232.15 269.413 232.635 269.925 233.254 270.288C233.872 270.651 234.571 270.832 235.35 270.832C236.16 270.832 236.854 270.656 237.43 270.304C238.016 269.941 238.464 269.424 238.774 268.752H240.518C240.102 269.819 239.44 270.645 238.534 271.232C237.627 271.808 236.566 272.096 235.35 272.096C234.315 272.096 233.371 271.856 232.518 271.376C231.675 270.885 231.008 270.208 230.518 269.344C230.027 268.48 229.782 267.504 229.782 266.416ZM247.037 263.072C247.698 263.072 248.296 263.216 248.829 263.504C249.362 263.781 249.778 264.203 250.077 264.768C250.386 265.333 250.541 266.021 250.541 266.832V272H249.101V267.04C249.101 266.165 248.882 265.499 248.445 265.04C248.008 264.571 247.41 264.336 246.653 264.336C245.885 264.336 245.272 264.576 244.813 265.056C244.365 265.536 244.141 266.235 244.141 267.152V272H242.685V260.16H244.141V264.48C244.429 264.032 244.824 263.685 245.325 263.44C245.837 263.195 246.408 263.072 247.037 263.072ZM260.92 267.28C260.92 267.557 260.904 267.851 260.872 268.16H253.864C253.917 269.024 254.21 269.701 254.744 270.192C255.288 270.672 255.944 270.912 256.712 270.912C257.341 270.912 257.864 270.768 258.28 270.48C258.706 270.181 259.005 269.787 259.176 269.296H260.744C260.509 270.139 260.04 270.827 259.336 271.36C258.632 271.883 257.757 272.144 256.712 272.144C255.88 272.144 255.133 271.957 254.472 271.584C253.821 271.211 253.309 270.683 252.936 270C252.562 269.307 252.376 268.507 252.376 267.6C252.376 266.693 252.557 265.899 252.92 265.216C253.282 264.533 253.789 264.011 254.44 263.648C255.101 263.275 255.858 263.088 256.712 263.088C257.544 263.088 258.28 263.269 258.92 263.632C259.56 263.995 260.05 264.496 260.392 265.136C260.744 265.765 260.92 266.48 260.92 267.28ZM259.416 266.976C259.416 266.421 259.293 265.947 259.048 265.552C258.802 265.147 258.466 264.843 258.04 264.64C257.624 264.427 257.16 264.32 256.648 264.32C255.912 264.32 255.282 264.555 254.76 265.024C254.248 265.493 253.954 266.144 253.88 266.976H259.416ZM262.297 267.6C262.297 266.693 262.479 265.904 262.841 265.232C263.204 264.549 263.705 264.021 264.345 263.648C264.996 263.275 265.737 263.088 266.569 263.088C267.647 263.088 268.532 263.349 269.225 263.872C269.929 264.395 270.393 265.12 270.617 266.048H269.049C268.9 265.515 268.607 265.093 268.169 264.784C267.743 264.475 267.209 264.32 266.569 264.32C265.737 264.32 265.065 264.608 264.553 265.184C264.041 265.749 263.785 266.555 263.785 267.6C263.785 268.656 264.041 269.472 264.553 270.048C265.065 270.624 265.737 270.912 266.569 270.912C267.209 270.912 267.743 270.763 268.169 270.464C268.596 270.165 268.889 269.739 269.049 269.184H270.617C270.383 270.08 269.913 270.8 269.209 271.344C268.505 271.877 267.625 272.144 266.569 272.144C265.737 272.144 264.996 271.957 264.345 271.584C263.705 271.211 263.204 270.683 262.841 270C262.479 269.317 262.297 268.517 262.297 267.6ZM277.456 272L274.016 268.128V272H272.56V260.16H274.016V267.12L277.392 263.232H279.424L275.296 267.6L279.44 272H277.456ZM284.619 272.144C283.797 272.144 283.051 271.957 282.379 271.584C281.717 271.211 281.195 270.683 280.811 270C280.437 269.307 280.251 268.507 280.251 267.6C280.251 266.704 280.443 265.915 280.827 265.232C281.221 264.539 281.755 264.011 282.427 263.648C283.099 263.275 283.851 263.088 284.683 263.088C285.515 263.088 286.267 263.275 286.939 263.648C287.611 264.011 288.139 264.533 288.523 265.216C288.917 265.899 289.115 266.693 289.115 267.6C289.115 268.507 288.912 269.307 288.507 270C288.112 270.683 287.573 271.211 286.891 271.584C286.208 271.957 285.451 272.144 284.619 272.144ZM284.619 270.864C285.141 270.864 285.632 270.741 286.091 270.496C286.549 270.251 286.917 269.883 287.195 269.392C287.483 268.901 287.627 268.304 287.627 267.6C287.627 266.896 287.488 266.299 287.211 265.808C286.933 265.317 286.571 264.955 286.123 264.72C285.675 264.475 285.189 264.352 284.667 264.352C284.133 264.352 283.643 264.475 283.195 264.72C282.757 264.955 282.405 265.317 282.139 265.808C281.872 266.299 281.739 266.896 281.739 267.6C281.739 268.315 281.867 268.917 282.123 269.408C282.389 269.899 282.741 270.267 283.179 270.512C283.616 270.747 284.096 270.864 284.619 270.864ZM298.805 263.232V272H297.349V270.704C297.072 271.152 296.682 271.504 296.181 271.76C295.69 272.005 295.146 272.128 294.549 272.128C293.866 272.128 293.253 271.989 292.709 271.712C292.165 271.424 291.733 270.997 291.413 270.432C291.104 269.867 290.949 269.179 290.949 268.368V263.232H292.389V268.176C292.389 269.04 292.608 269.707 293.045 270.176C293.482 270.635 294.08 270.864 294.837 270.864C295.616 270.864 296.229 270.624 296.677 270.144C297.125 269.664 297.349 268.965 297.349 268.048V263.232H298.805ZM309.039 263.232V272H307.583V270.704C307.306 271.152 306.917 271.504 306.415 271.76C305.925 272.005 305.381 272.128 304.783 272.128C304.101 272.128 303.487 271.989 302.943 271.712C302.399 271.424 301.967 270.997 301.647 270.432C301.338 269.867 301.183 269.179 301.183 268.368V263.232H302.623V268.176C302.623 269.04 302.842 269.707 303.279 270.176C303.717 270.635 304.314 270.864 305.071 270.864C305.85 270.864 306.463 270.624 306.911 270.144C307.359 269.664 307.583 268.965 307.583 268.048V263.232H309.039ZM313.274 264.432V269.6C313.274 270.027 313.364 270.331 313.546 270.512C313.727 270.683 314.042 270.768 314.49 270.768H315.562V272H314.25C313.439 272 312.831 271.813 312.426 271.44C312.02 271.067 311.818 270.453 311.818 269.6V264.432H310.682V263.232H311.818V261.024H313.274V263.232H315.562V264.432H313.274Z" fill="#1E222B"/>
<circle cx="44" cy="65" r="20" fill="#F8F9FB"/>
<path d="M46.2506 60.5572C46.0596 60.5572 45.8676 60.6302 45.7216 60.7762L42.2346 64.2462C42.0936 64.3872 42.0146 64.5782 42.0146 64.7782C42.0146 64.9772 42.0936 65.1682 42.2346 65.3092L45.7216 68.7812C46.0146 69.0732 46.4886 69.0732 46.7816 68.7792C47.0736 68.4852 47.0726 68.0102 46.7796 67.7182L43.8266 64.7782L46.7796 61.8382C47.0726 61.5462 47.0736 61.0722 46.7816 60.7782C46.6356 60.6302 46.4426 60.5572 46.2506 60.5572Z" fill="#1E222B"/>
<path d="M95.495 71.24C94.6897 71.24 93.9643 71.1067 93.319 70.84C92.679 70.568 92.1483 70.184 91.727 69.688C91.311 69.192 91.039 68.6027 90.911 67.92L92.111 67.72C92.303 68.4667 92.7083 69.0533 93.327 69.48C93.9457 69.9013 94.6843 70.112 95.543 70.112C96.1083 70.112 96.615 70.024 97.063 69.848C97.511 69.6667 97.863 69.4107 98.119 69.08C98.375 68.7493 98.503 68.3573 98.503 67.904C98.503 67.6053 98.4497 67.352 98.343 67.144C98.2363 66.9307 98.095 66.7547 97.919 66.616C97.743 66.4773 97.551 66.3627 97.343 66.272C97.135 66.176 96.9323 66.0987 96.735 66.04L93.815 65.168C93.463 65.0667 93.1377 64.9387 92.839 64.784C92.5403 64.624 92.279 64.4347 92.055 64.216C91.8363 63.992 91.6657 63.7307 91.543 63.432C91.4203 63.1333 91.359 62.792 91.359 62.408C91.359 61.7573 91.5297 61.1947 91.871 60.72C92.2123 60.2453 92.679 59.88 93.271 59.624C93.863 59.368 94.5377 59.2427 95.295 59.248C96.063 59.248 96.7483 59.384 97.351 59.656C97.959 59.928 98.4603 60.3173 98.855 60.824C99.2497 61.3253 99.511 61.92 99.639 62.608L98.407 62.832C98.327 62.3307 98.143 61.896 97.855 61.528C97.567 61.16 97.199 60.8773 96.751 60.68C96.3083 60.4773 95.8203 60.3733 95.287 60.368C94.7697 60.368 94.3083 60.456 93.903 60.632C93.503 60.8027 93.1857 61.0373 92.951 61.336C92.7163 61.6347 92.599 61.976 92.599 62.36C92.599 62.7493 92.7057 63.0613 92.919 63.296C93.1377 63.5307 93.4043 63.7147 93.719 63.848C94.039 63.9813 94.3483 64.0907 94.647 64.176L96.903 64.84C97.1377 64.904 97.4123 64.9973 97.727 65.12C98.047 65.2373 98.3563 65.408 98.655 65.632C98.959 65.8507 99.2097 66.1387 99.407 66.496C99.6043 66.8533 99.703 67.3067 99.703 67.856C99.703 68.3893 99.5963 68.8667 99.383 69.288C99.175 69.7093 98.879 70.064 98.495 70.352C98.1163 70.64 97.671 70.8587 97.159 71.008C96.6523 71.1627 96.0977 71.24 95.495 71.24ZM107.594 71V66.592C107.594 66.112 107.549 65.672 107.458 65.272C107.368 64.8667 107.221 64.5147 107.018 64.216C106.821 63.912 106.562 63.6773 106.242 63.512C105.928 63.3467 105.544 63.264 105.09 63.264C104.674 63.264 104.306 63.336 103.986 63.48C103.672 63.624 103.405 63.832 103.186 64.104C102.973 64.3707 102.81 64.696 102.698 65.08C102.586 65.464 102.53 65.9013 102.53 66.392L101.698 66.208C101.698 65.3227 101.853 64.5787 102.162 63.976C102.472 63.3733 102.898 62.9173 103.442 62.608C103.986 62.2987 104.61 62.144 105.314 62.144C105.832 62.144 106.282 62.224 106.666 62.384C107.056 62.544 107.384 62.76 107.65 63.032C107.922 63.304 108.141 63.616 108.306 63.968C108.472 64.3147 108.592 64.6853 108.666 65.08C108.741 65.4693 108.778 65.8587 108.778 66.248V71H107.594ZM101.346 71V59.48H102.41V65.984H102.53V71H101.346ZM114.462 71.24C113.604 71.24 112.87 71.0453 112.262 70.656C111.654 70.2667 111.188 69.728 110.862 69.04C110.537 68.352 110.374 67.5627 110.374 66.672C110.374 65.7653 110.54 64.9707 110.87 64.288C111.201 63.6053 111.67 63.0747 112.278 62.696C112.892 62.312 113.62 62.12 114.462 62.12C115.326 62.12 116.062 62.3147 116.67 62.704C117.284 63.088 117.75 63.624 118.07 64.312C118.396 64.9947 118.558 65.7813 118.558 66.672C118.558 67.5787 118.396 68.376 118.07 69.064C117.745 69.7467 117.276 70.28 116.662 70.664C116.049 71.048 115.316 71.24 114.462 71.24ZM114.462 70.112C115.422 70.112 116.137 69.7947 116.606 69.16C117.076 68.52 117.31 67.6907 117.31 66.672C117.31 65.6267 117.073 64.7947 116.598 64.176C116.129 63.5573 115.417 63.248 114.462 63.248C113.817 63.248 113.284 63.3947 112.862 63.688C112.446 63.976 112.134 64.3787 111.926 64.896C111.724 65.408 111.622 66 111.622 66.672C111.622 67.712 111.862 68.5467 112.342 69.176C112.822 69.8 113.529 70.112 114.462 70.112ZM124.203 71.24C123.408 71.24 122.736 71.04 122.187 70.64C121.638 70.2347 121.222 69.688 120.939 69C120.656 68.3067 120.515 67.5307 120.515 66.672C120.515 65.7973 120.656 65.0187 120.939 64.336C121.227 63.648 121.648 63.1067 122.203 62.712C122.758 62.3173 123.44 62.12 124.251 62.12C125.04 62.12 125.718 62.32 126.283 62.72C126.848 63.12 127.28 63.664 127.579 64.352C127.883 65.04 128.035 65.8133 128.035 66.672C128.035 67.536 127.883 68.312 127.579 69C127.275 69.688 126.838 70.2347 126.267 70.64C125.696 71.04 125.008 71.24 124.203 71.24ZM120.315 74.84V62.36H121.371V68.864H121.499V74.84H120.315ZM124.083 70.144C124.686 70.144 125.187 69.992 125.587 69.688C125.987 69.384 126.286 68.9707 126.483 68.448C126.686 67.92 126.787 67.328 126.787 66.672C126.787 66.0213 126.688 65.4347 126.491 64.912C126.294 64.3893 125.992 63.976 125.587 63.672C125.187 63.368 124.678 63.216 124.059 63.216C123.456 63.216 122.955 63.3627 122.555 63.656C122.16 63.9493 121.864 64.3573 121.667 64.88C121.47 65.3973 121.371 65.9947 121.371 66.672C121.371 67.3387 121.47 67.936 121.667 68.464C121.864 68.9867 122.163 69.3973 122.563 69.696C122.963 69.9947 123.47 70.144 124.083 70.144ZM133.672 71.24C132.877 71.24 132.205 71.04 131.656 70.64C131.107 70.2347 130.691 69.688 130.408 69C130.125 68.3067 129.984 67.5307 129.984 66.672C129.984 65.7973 130.125 65.0187 130.408 64.336C130.696 63.648 131.117 63.1067 131.672 62.712C132.227 62.3173 132.909 62.12 133.72 62.12C134.509 62.12 135.187 62.32 135.752 62.72C136.317 63.12 136.749 63.664 137.048 64.352C137.352 65.04 137.504 65.8133 137.504 66.672C137.504 67.536 137.352 68.312 137.048 69C136.744 69.688 136.307 70.2347 135.736 70.64C135.165 71.04 134.477 71.24 133.672 71.24ZM129.784 74.84V62.36H130.84V68.864H130.968V74.84H129.784ZM133.552 70.144C134.155 70.144 134.656 69.992 135.056 69.688C135.456 69.384 135.755 68.9707 135.952 68.448C136.155 67.92 136.256 67.328 136.256 66.672C136.256 66.0213 136.157 65.4347 135.96 64.912C135.763 64.3893 135.461 63.976 135.056 63.672C134.656 63.368 134.147 63.216 133.528 63.216C132.925 63.216 132.424 63.3627 132.024 63.656C131.629 63.9493 131.333 64.3573 131.136 64.88C130.939 65.3973 130.84 65.9947 130.84 66.672C130.84 67.3387 130.939 67.936 131.136 68.464C131.333 68.9867 131.632 69.3973 132.032 69.696C132.432 69.9947 132.939 70.144 133.552 70.144ZM139.421 60.72V59.4H140.597V60.72H139.421ZM139.421 71V62.36H140.597V71H139.421ZM149.235 71V66.592C149.235 66.112 149.19 65.672 149.099 65.272C149.008 64.8667 148.862 64.5147 148.659 64.216C148.462 63.912 148.203 63.6773 147.883 63.512C147.568 63.3467 147.184 63.264 146.731 63.264C146.315 63.264 145.947 63.336 145.627 63.48C145.312 63.624 145.046 63.832 144.827 64.104C144.614 64.3707 144.451 64.696 144.339 65.08C144.227 65.464 144.171 65.9013 144.171 66.392L143.339 66.208C143.339 65.3227 143.494 64.5787 143.803 63.976C144.112 63.3733 144.539 62.9173 145.083 62.608C145.627 62.2987 146.251 62.144 146.955 62.144C147.472 62.144 147.923 62.224 148.307 62.384C148.696 62.544 149.024 62.76 149.291 63.032C149.563 63.304 149.782 63.616 149.947 63.968C150.112 64.3147 150.232 64.6853 150.307 65.08C150.382 65.4693 150.419 65.8587 150.419 66.248V71H149.235ZM142.987 71V62.36H144.051V64.488H144.171V71H142.987ZM155.927 75.08C155.484 75.08 155.047 75.0133 154.615 74.88C154.188 74.752 153.794 74.5467 153.431 74.264C153.068 73.9867 152.764 73.624 152.519 73.176L153.583 72.584C153.823 73.064 154.159 73.408 154.591 73.616C155.028 73.8293 155.474 73.936 155.927 73.936C156.551 73.936 157.055 73.8187 157.439 73.584C157.828 73.3547 158.111 73.0133 158.287 72.56C158.463 72.1067 158.548 71.5413 158.543 70.864V68.56H158.679V62.36H159.727V70.88C159.727 71.1253 159.719 71.36 159.703 71.584C159.692 71.8133 159.668 72.0373 159.631 72.256C159.53 72.9013 159.319 73.432 158.999 73.848C158.684 74.264 158.268 74.5733 157.751 74.776C157.239 74.9787 156.631 75.08 155.927 75.08ZM155.847 71.24C155.042 71.24 154.354 71.04 153.783 70.64C153.212 70.2347 152.775 69.688 152.471 69C152.167 68.312 152.015 67.536 152.015 66.672C152.015 65.8133 152.164 65.04 152.463 64.352C152.767 63.664 153.202 63.12 153.767 62.72C154.332 62.32 155.01 62.12 155.799 62.12C156.61 62.12 157.292 62.3173 157.847 62.712C158.402 63.1067 158.82 63.648 159.103 64.336C159.391 65.0187 159.535 65.7973 159.535 66.672C159.535 67.5307 159.394 68.3067 159.111 69C158.828 69.688 158.412 70.2347 157.863 70.64C157.314 71.04 156.642 71.24 155.847 71.24ZM155.967 70.144C156.58 70.144 157.087 69.9947 157.487 69.696C157.887 69.3973 158.186 68.9867 158.383 68.464C158.58 67.936 158.679 67.3387 158.679 66.672C158.679 65.9947 158.58 65.3973 158.383 64.88C158.186 64.3573 157.887 63.9493 157.487 63.656C157.092 63.3627 156.594 63.216 155.991 63.216C155.372 63.216 154.86 63.368 154.455 63.672C154.05 63.976 153.748 64.3893 153.551 64.912C153.359 65.4347 153.263 66.0213 153.263 66.672C153.263 67.328 153.362 67.92 153.559 68.448C153.762 68.9707 154.063 69.384 154.463 69.688C154.863 69.992 155.364 70.144 155.967 70.144ZM169.831 71.24C168.684 71.24 167.716 70.9867 166.927 70.48C166.138 69.968 165.54 69.2613 165.135 68.36C164.73 67.4587 164.527 66.4187 164.527 65.24C164.527 64.0613 164.73 63.0213 165.135 62.12C165.54 61.2187 166.138 60.5147 166.927 60.008C167.716 59.496 168.684 59.24 169.831 59.24C171.17 59.24 172.263 59.584 173.111 60.272C173.959 60.9547 174.54 61.872 174.855 63.024L173.655 63.336C173.41 62.424 172.97 61.7013 172.335 61.168C171.7 60.6347 170.866 60.368 169.831 60.368C168.93 60.368 168.18 60.5733 167.583 60.984C166.986 61.3947 166.535 61.968 166.231 62.704C165.932 63.4347 165.778 64.28 165.767 65.24C165.762 66.2 165.908 67.0453 166.207 67.776C166.511 68.5067 166.964 69.08 167.567 69.496C168.175 69.9067 168.93 70.112 169.831 70.112C170.866 70.112 171.7 69.8453 172.335 69.312C172.97 68.7733 173.41 68.0507 173.655 67.144L174.855 67.456C174.54 68.608 173.959 69.528 173.111 70.216C172.263 70.8987 171.17 71.24 169.831 71.24ZM179.092 71.24C178.441 71.24 177.895 71.1227 177.452 70.888C177.015 70.6533 176.687 70.3413 176.468 69.952C176.249 69.5627 176.14 69.1387 176.14 68.68C176.14 68.2107 176.233 67.8107 176.42 67.48C176.612 67.144 176.871 66.8693 177.196 66.656C177.527 66.4427 177.908 66.28 178.34 66.168C178.777 66.0613 179.26 65.968 179.788 65.888C180.321 65.8027 180.841 65.7307 181.348 65.672C181.86 65.608 182.308 65.5467 182.692 65.488L182.276 65.744C182.292 64.8907 182.127 64.2587 181.78 63.848C181.433 63.4373 180.831 63.232 179.972 63.232C179.38 63.232 178.879 63.3653 178.468 63.632C178.063 63.8987 177.777 64.32 177.612 64.896L176.468 64.56C176.665 63.7867 177.063 63.1867 177.66 62.76C178.257 62.3333 179.033 62.12 179.988 62.12C180.777 62.12 181.447 62.2693 181.996 62.568C182.551 62.8613 182.943 63.288 183.172 63.848C183.279 64.0987 183.348 64.3787 183.38 64.688C183.412 64.9973 183.428 65.312 183.428 65.632V71H182.38V68.832L182.684 68.96C182.391 69.7013 181.935 70.2667 181.316 70.656C180.697 71.0453 179.956 71.24 179.092 71.24ZM179.228 70.224C179.777 70.224 180.257 70.1253 180.668 69.928C181.079 69.7307 181.409 69.4613 181.66 69.12C181.911 68.7733 182.073 68.384 182.148 67.952C182.212 67.6747 182.247 67.3707 182.252 67.04C182.257 66.704 182.26 66.4533 182.26 66.288L182.708 66.52C182.308 66.5733 181.873 66.6267 181.404 66.68C180.94 66.7333 180.481 66.7947 180.028 66.864C179.58 66.9333 179.175 67.016 178.812 67.112C178.567 67.1813 178.329 67.28 178.1 67.408C177.871 67.5307 177.681 67.696 177.532 67.904C177.388 68.112 177.316 68.3707 177.316 68.68C177.316 68.9307 177.377 69.1733 177.5 69.408C177.628 69.6427 177.831 69.8373 178.108 69.992C178.391 70.1467 178.764 70.224 179.228 70.224ZM185.511 71V62.36H186.567V64.44L186.359 64.168C186.455 63.912 186.58 63.6773 186.735 63.464C186.889 63.2453 187.057 63.0667 187.239 62.928C187.463 62.7307 187.724 62.5813 188.023 62.48C188.321 62.3733 188.623 62.312 188.927 62.296C189.231 62.2747 189.508 62.296 189.759 62.36V63.464C189.444 63.384 189.1 63.3653 188.727 63.408C188.353 63.4507 188.009 63.6 187.695 63.856C187.407 64.08 187.191 64.3493 187.047 64.664C186.903 64.9733 186.807 65.304 186.759 65.656C186.711 66.0027 186.687 66.3467 186.687 66.688V71H185.511ZM195.98 71C195.495 71.1013 195.015 71.1413 194.54 71.12C194.071 71.0987 193.65 70.9973 193.276 70.816C192.908 70.6347 192.628 70.352 192.436 69.968C192.282 69.648 192.196 69.3253 192.18 69C192.17 68.6693 192.164 68.2933 192.164 67.872V59.96H193.332V67.824C193.332 68.1867 193.335 68.4907 193.34 68.736C193.351 68.976 193.407 69.1893 193.508 69.376C193.7 69.7333 194.004 69.9467 194.42 70.016C194.842 70.0853 195.362 70.0693 195.98 69.968V71ZM190.316 63.368V62.36H195.98V63.368H190.316ZM205.022 73.392C204.392 72.672 203.851 71.8693 203.398 70.984C202.95 70.0933 202.603 69.16 202.358 68.184C202.118 67.208 202 66.2267 202.006 65.24C202 64.2533 202.118 63.272 202.358 62.296C202.603 61.3147 202.95 60.3813 203.398 59.496C203.851 58.6107 204.392 57.808 205.022 57.088L205.886 57.76C205.267 58.5013 204.75 59.28 204.334 60.096C203.918 60.9067 203.606 61.744 203.398 62.608C203.195 63.472 203.091 64.3493 203.086 65.24C203.091 66.12 203.198 66.9973 203.406 67.872C203.619 68.7413 203.931 69.5867 204.342 70.408C204.758 71.224 205.272 71.9893 205.886 72.704L205.022 73.392ZM211.098 71.24C210.501 71.24 209.949 71.1173 209.442 70.872C208.935 70.6267 208.503 70.288 208.146 69.856C207.789 69.424 207.533 68.928 207.378 68.368L208.506 68.064C208.607 68.48 208.791 68.84 209.058 69.144C209.325 69.4427 209.637 69.6747 209.994 69.84C210.357 70.0053 210.735 70.088 211.13 70.088C211.642 70.088 212.101 69.9653 212.506 69.72C212.917 69.4693 213.242 69.1387 213.482 68.728C213.722 68.3173 213.842 67.8667 213.842 67.376C213.842 66.8693 213.717 66.4133 213.466 66.008C213.215 65.5973 212.885 65.272 212.474 65.032C212.063 64.792 211.615 64.672 211.13 64.672C210.586 64.672 210.117 64.792 209.722 65.032C209.327 65.2667 209.013 65.5627 208.778 65.92L207.706 65.472L208.058 59.48H214.21V60.608H208.578L209.162 60.056L208.85 65.168L208.554 64.776C208.885 64.3973 209.285 64.1013 209.754 63.888C210.223 63.6747 210.717 63.568 211.234 63.568C211.943 63.568 212.583 63.7387 213.154 64.08C213.725 64.416 214.178 64.872 214.514 65.448C214.85 66.024 215.018 66.6667 215.018 67.376C215.018 68.08 214.839 68.7253 214.482 69.312C214.125 69.8933 213.65 70.36 213.058 70.712C212.466 71.064 211.813 71.24 211.098 71.24ZM217.373 73.392L216.509 72.704C217.122 71.9893 217.634 71.224 218.045 70.408C218.461 69.5867 218.773 68.7413 218.981 67.872C219.194 66.9973 219.303 66.12 219.309 65.24C219.303 64.3493 219.197 63.472 218.989 62.608C218.786 61.744 218.477 60.9067 218.061 60.096C217.645 59.28 217.127 58.5013 216.509 57.76L217.373 57.088C218.002 57.808 218.541 58.6107 218.989 59.496C219.442 60.3813 219.789 61.3147 220.029 62.296C220.274 63.272 220.394 64.2533 220.389 65.24C220.394 66.2267 220.274 67.208 220.029 68.184C219.789 69.16 219.442 70.0933 218.989 70.984C218.541 71.8693 218.002 72.672 217.373 73.392Z" fill="#1E222B"/>
</svg>
