<svg width="34" height="33" viewBox="0 0 34 33" fill="none" xmlns="http://www.w3.org/2000/svg">
<path d="M16.7726 22.9178C3.20356 22.9178 0 27.2637 0 29.2727C0 31.2817 1.66887 33 3.72723 33H29.8179C31.8762 33 33.5451 31.2752 33.5451 29.2727C33.5451 27.2703 30.3416 22.9178 16.7726 22.9178Z" fill="#78B159"/>
<path d="M26.8401 25.6853C26.8401 27.1119 25.6828 27.6234 24.2562 27.6234C22.8296 27.6234 21.6723 27.1128 21.6723 25.6853L22.318 19.8717C22.318 18.4451 22.8287 18.5793 24.2562 18.5793C25.6828 18.5793 26.1944 18.4442 26.1944 19.8717L26.8401 25.6853Z" fill="#662113"/>
<path d="M32.4904 17.8273C28.2134 13.9743 26.4812 8.45703 24.256 8.45703C22.0308 8.45703 20.2986 13.9743 16.0225 17.8273C14.2251 19.4468 15.0814 20.3832 17.5451 20.196C19.7414 20.0292 21.7951 19.5055 24.256 19.5055C26.7169 19.5055 28.7715 20.0301 30.9669 20.196C33.4306 20.3832 34.2869 19.4458 32.4904 17.8273Z" fill="#5C913B"/>
<path d="M31.1013 16.3001C27.8148 13.131 25.968 8.59125 24.2562 8.59125C22.5454 8.59125 20.6986 13.131 17.4121 16.3001C14.8002 18.8188 20.8346 19.3835 24.2562 16.3001C27.6769 19.3835 33.7122 18.8188 31.1013 16.3001Z" fill="#3E721D"/>
<path d="M31.1013 13.733C27.8148 10.7717 25.968 6.53107 24.2562 6.53107C22.5454 6.53107 20.6986 10.7717 17.4121 13.733C14.8002 16.0858 20.8346 16.6132 24.2562 13.733C27.6769 16.6132 33.7122 16.0849 31.1013 13.733Z" fill="#5C913B"/>
<path d="M29.5998 11.6302C27.0345 9.31834 25.5921 6.00763 24.2559 6.00763C22.9206 6.00763 21.4781 9.31834 18.9119 11.6302C16.8731 13.4668 21.5834 13.8795 24.2559 11.6302C26.9274 13.8786 31.6386 13.4668 29.5998 11.6302Z" fill="#3E721D"/>
<path d="M29.5998 9.70554C27.0345 7.39372 25.5921 4.08301 24.2559 4.08301C22.9206 4.08301 21.4781 7.39372 18.9119 9.70554C16.8731 11.5421 21.5834 11.9549 24.2559 9.70554C26.9274 11.9549 31.6386 11.5431 29.5998 9.70554Z" fill="#5C913B"/>
<path d="M28.5682 7.99761C26.4977 6.13213 25.3339 3.46063 24.2558 3.46063C23.1777 3.46063 22.0138 6.13213 19.9434 7.99761C18.2978 9.48012 22.0996 9.81277 24.2558 7.99761C26.412 9.81277 30.2147 9.48012 28.5682 7.99761Z" fill="#3E721D"/>
<path d="M28.5682 6.54961C26.4977 4.68413 25.3339 2.01263 24.2558 2.01263C23.1777 2.01263 22.0138 4.68413 19.9434 6.54961C18.2978 8.03212 22.0996 8.36477 24.2558 6.54961C26.412 8.36477 30.2147 8.03212 28.5682 6.54961Z" fill="#5C913B"/>
<path d="M27.538 4.41762C25.9633 2.99848 25.0771 0.965271 24.2562 0.965271C23.4362 0.965271 22.5501 2.99848 20.9744 4.41762C19.722 5.54604 22.6153 5.79856 24.2562 4.41762C25.8971 5.79949 28.7904 5.54604 27.538 4.41762Z" fill="#3E721D"/>
<path d="M27.538 3.45235C25.9633 2.03321 25.0771 0 24.2562 0C23.4362 0 22.5501 2.03321 20.9744 3.45235C19.722 4.58077 22.6153 4.83329 24.2562 3.45235C25.8971 4.83329 28.7904 4.58077 27.538 3.45235Z" fill="#5C913B"/>
<path d="M14.0712 30.2046C13.6761 30.2046 13.3239 29.9558 13.1915 29.584L8.52132 16.5079C8.41882 16.2219 8.46261 15.9228 8.63779 15.673C8.81297 15.4261 9.09811 15.2957 9.40188 15.2957H20.359C20.7327 15.2957 21.0709 15.5007 21.2181 15.8445L26.822 28.9112C26.946 29.2001 26.9161 29.5272 26.7438 29.789C26.5686 30.0518 26.276 30.2046 25.962 30.2046H14.0712Z" fill="#F4900C"/>
<path d="M3.79711 30.2045C3.48309 30.2045 3.18957 30.0461 3.01719 29.7852C2.84481 29.5224 2.81592 29.1907 2.93892 28.9018L8.54654 15.8174C8.69284 15.4745 9.03201 15.2518 9.40474 15.2518C9.77839 15.2518 10.1176 15.4754 10.2639 15.8174L15.8715 28.9009C15.9954 29.1907 15.9647 29.5215 15.7923 29.7843C15.6199 30.0461 15.3264 30.2045 15.0124 30.2045H3.79711Z" fill="#FFCC4D"/>
<path d="M9.40192 17.5656L7.53271 30.2047H11.2693L9.40192 17.5656Z" fill="#292F33"/>
<path d="M13.1637 29.1675L13.5811 30.2046H11.2693L13.1637 29.1675ZM5.63931 29.1675L5.22186 30.2046H7.53275L5.63931 29.1675Z" fill="#FFAC33"/>
<path d="M11.2694 30.2044C11.2694 30.2044 12.9681 29.7711 13.7983 29.0043L9.40204 17.5654L11.2694 30.2044ZM7.53283 30.2044C7.53283 30.2044 5.83415 29.7711 5.00391 29.0043L9.40111 17.5645L7.53283 30.2044Z" fill="#FFE8B6"/>
<path d="M12.6959 4.69638C12.6791 4.69638 12.6642 4.70197 12.6474 4.70197C12.6791 4.54916 12.6959 4.39168 12.6959 4.22955C12.6959 2.94272 11.6532 1.90002 10.3664 1.90002C9.53612 1.90002 8.81303 2.33704 8.40024 2.99117C8.14213 2.8924 7.86445 2.83276 7.57093 2.83276C6.38288 2.83276 5.4138 3.72451 5.2703 4.87343C5.00753 4.76813 4.72705 4.69638 4.42608 4.69638C3.13925 4.69638 2.09656 5.73908 2.09656 7.0259C2.09656 8.31273 3.13925 9.35542 4.42608 9.35542H12.6959C13.9827 9.35542 15.0254 8.31273 15.0254 7.0259C15.0254 5.73908 13.9827 4.69638 12.6959 4.69638Z" fill="#E1E8ED"/>
</svg>
