<?xml version="1.0" encoding="iso-8859-1"?>
<!-- Uploaded to: SVG Repo, www.svgrepo.com, Generator: SVG Repo Mixer Tools -->
<svg height="800px" width="800px" version="1.1" id="Layer_1" xmlns="http://www.w3.org/2000/svg" xmlns:xlink="http://www.w3.org/1999/xlink" 
	 viewBox="0 0 512.001 512.001" xml:space="preserve">
<g>
	<path style="fill:#EB806E;" d="M175.102,350.339c-0.176,8.617,5.686,15.714,13.091,15.857c0,0,24.243-1.003,56.134-9.543
		c-4.386,2.975-7.273,7.989-7.273,13.664c0,9.135,7.394,16.507,16.518,16.507c0,0,84.509-4.463,155.354-44.773
		c-10.733,5.389-22.965,7.075-34.789,4.76l-155.222-29.698c-19.229,12.144-35.318,19.02-35.472,19.086
		C178.65,338.504,175.223,343.948,175.102,350.339z"/>
	<path style="fill:#EB806E;" d="M158.439,136.097c0,4.474,2.7,8.331,6.568,10.017c0.209,0.088,41.522,16.122,64.553,40.827
		c22.182-11.306,41.996-21.191,52.674-25.94c-48.508-32.42-112.862-35.825-112.862-35.825
		C163.332,125.176,158.439,130.058,158.439,136.097z"/>
	<path style="fill:#EB806E;" d="M0,322.757c0,6.039,4.893,10.92,10.931,10.92c0,0,62.139-3.295,110.317-34.161
		c-9.554-4.959-15.868-14.921-15.868-26.138v-7.229c0-10.436,5.51-20.034,14.403-25.323
		c-47.968-29.995-108.851-33.224-108.851-33.224C4.893,207.603,0,212.484,0,218.523c0,4.485,2.7,8.342,6.568,10.017
		c0.11,0.044,10.832,4.209,24.386,11.549s29.929,17.841,41.323,30.557c-22.788,25.422-65.5,42.007-65.71,42.095
		C2.7,314.415,0,318.272,0,322.757z"/>
</g>
<path style="fill:#D14841;" d="M496.869,242.342l-155.373-82.305c-18.089-9.583-39.242-10.992-58.247-4.197
	c-25.551,10.253-165.166,84.095-165.166,84.095c-9.829,5.047-16.011,15.167-16.011,26.218v7.223
	c0,14.14,10.044,26.288,23.933,28.945l244.107,46.697c12.637,2.468,25.741,0.377,36.982-5.902l90.332-50.455
	c9-5.027,14.576-14.528,14.576-24.837v-0.342C512,256.946,506.178,247.274,496.869,242.342z"/>
<circle style="fill:#E46A53;" cx="435.615" cy="259.555" r="8.816"/>
<g>
	<path style="fill:#EB806E;" d="M316.224,230.536c-12.071,0-21.855-9.785-21.855-21.855c0-12.071,9.785-21.855,21.855-21.855
		V230.536z"/>
	<path style="fill:#EB806E;" d="M316.224,274.247c-12.071,0-21.855-9.785-21.855-21.855c0-12.071,9.785-21.855,21.855-21.855
		V274.247z"/>
	<path style="fill:#EB806E;" d="M316.224,317.958c-12.071,0-21.855-9.785-21.855-21.855c0-12.071,9.785-21.855,21.855-21.855
		V317.958z"/>
	<path style="fill:#EB806E;" d="M255.617,238.407c-7.724,0-13.986-6.261-13.986-13.986c0-7.725,6.261-13.986,13.986-13.986V238.407z
		"/>
	<path style="fill:#EB806E;" d="M255.617,266.378c-7.724,0-13.986-6.261-13.986-13.986c0-7.724,6.261-13.986,13.986-13.986V266.378z
		"/>
	<path style="fill:#EB806E;" d="M255.617,294.349c-7.724,0-13.986-6.261-13.986-13.986c0-7.724,6.261-13.986,13.986-13.986V294.349z
		"/>
</g>
</svg>