<?xml version="1.0" encoding="iso-8859-1"?>
<!-- Uploaded to: SVG Repo, www.svgrepo.com, Generator: SVG Repo Mixer Tools -->
<!DOCTYPE svg PUBLIC "-//W3C//DTD SVG 1.1//EN" "http://www.w3.org/Graphics/SVG/1.1/DTD/svg11.dtd">
<svg height="800px" width="800px" version="1.1" id="Capa_1" xmlns="http://www.w3.org/2000/svg" xmlns:xlink="http://www.w3.org/1999/xlink" 
	 viewBox="0 0 297.503 297.503" xml:space="preserve">
<g id="XMLID_47_">
	<g>
		<path style="fill:#D5BA2F;" d="M58.69,58.766c3.24,1.84,5,5.22,5.94,8c-3.84,2.77-7.38,3.85-10.57,3.21
			c-5.14-1.02-9.89-6.01-13.35-10.9C48.48,56.626,54.69,56.486,58.69,58.766z"/>
		<path style="fill:#DB9D3C;" d="M277.44,168.076c0.2,25.79-13.76,58.91-36.67,67.45c-16.3,6.08-32.22,0.2-32.61,0.05
			c-2.34-0.91-4.93-0.9-7.25,0.02c-0.16,0.06-16.17,6.04-32.58-0.07c-22.91-8.54-36.87-41.66-36.66-67.45
			c0.06-8.16,1.81-27.71,16.67-32.98c5.58-1.98,10.89-2.96,15.93-2.96c7.1,0,13.65,1.96,19.57,5.89
			c7.97,5.29,12.02,12.34,12.03,12.35c1.74,3.16,5.05,5.16,8.66,5.16c3.62,0,6.93-1.94,8.67-5.1c0.04-0.07,4.09-7.12,12.07-12.41
			c10.11-6.71,22.05-7.7,35.49-2.93C275.62,140.366,277.37,159.916,277.44,168.076z"/>
		<path style="fill:#C45A57;" d="M42.84,194.806c12.57,0,22.79,10.22,22.79,22.79c0,12.56-10.22,22.78-22.79,22.78
			c-12.56,0-22.78-10.22-22.78-22.78C20.06,205.026,30.28,194.806,42.84,194.806z"/>
		<path style="fill:#C45A57;" d="M136.89,236.726c-3.56,2.3-7.78,3.65-12.33,3.65c-12.56,0-22.78-10.22-22.78-22.78
			c0-9.45,5.79-17.55,14-20.99c2.11,7.68,5.02,15.17,8.65,22.05C128.01,225.466,132.22,231.526,136.89,236.726z"/>
		<path d="M297.25,167.926c0.13,16.82-4.45,35.32-12.58,50.73c-9.15,17.37-22.28,29.96-36.98,35.43
			c-8.03,2.99-15.88,3.99-22.79,3.99c-8.89,0.01-16.21-1.65-20.35-2.85c-7.36,2.13-24.76,5.71-43.14-1.14
			c-3.07-1.14-6.06-2.61-8.97-4.35c-7.47,6.5-17.22,10.45-27.88,10.45c-19.31,0-35.66-12.93-40.86-30.59
			c-5.19,17.66-21.54,30.59-40.86,30.59c-23.48,0-42.59-19.11-42.59-42.59c0-21.95,16.69-40.07,38.04-42.35
			c17.49-20.33,24.35-60.25,26.5-86.63c-3.22,0.97-6.22,1.35-8.93,1.35c-2.1,0-4.03-0.23-5.74-0.57
			c-20.52-4.14-31.54-28.57-32.73-31.34c-2.09-4.88,0.04-10.54,4.82-12.83c19.12-9.19,34.78-10.38,46.53-3.53
			c11.15,6.49,14.87,17.87,16.09,24.04c21.12,20.95,33.43,42.52,40.56,61.53c4.45-4.89,9.93-8.57,16.33-10.84
			c23.88-8.47,41.53-2.37,52.51,4.73c1.31-20.02,7.06-47.36,26.86-65.72c4.01-3.72,10.27-3.49,13.99,0.52s3.49,10.28-0.52,14
			c-14.77,13.7-19.33,35.32-20.48,51.73c10.91-7.32,28.84-13.94,53.3-5.26C286.16,123.086,297.04,141.856,297.25,167.926z
			 M240.77,235.526c22.91-8.54,36.87-41.66,36.67-67.45c-0.07-8.16-1.82-27.71-16.68-32.98c-13.44-4.77-25.38-3.78-35.49,2.93
			c-7.98,5.29-12.03,12.34-12.07,12.41c-1.74,3.16-5.05,5.1-8.67,5.1c-3.61,0-6.92-2-8.66-5.16c-0.01-0.01-4.06-7.06-12.03-12.35
			c-5.92-3.93-12.47-5.89-19.57-5.89c-5.04,0-10.35,0.98-15.93,2.96c-14.86,5.27-16.61,24.82-16.67,32.98
			c-0.21,25.79,13.75,58.91,36.66,67.45c16.41,6.11,32.42,0.13,32.58,0.07c2.32-0.92,4.91-0.93,7.25-0.02
			C208.55,235.726,224.47,241.606,240.77,235.526z M124.56,240.376c4.55,0,8.77-1.35,12.33-3.65c-4.67-5.2-8.88-11.26-12.46-18.07
			c-3.63-6.88-6.54-14.37-8.65-22.05c-8.21,3.44-14,11.54-14,20.99C101.78,230.156,112,240.376,124.56,240.376z M111.86,167.926
			c0.03-4.31,0.36-8.41,0.96-12.29c-0.38-1.97-0.82-4.01-1.33-6.12c-4.83-19.79-14.01-38.21-27.35-54.97
			c-2.19,23.51-8.09,59.22-23.9,84.18c11.26,5.06,19.93,14.87,23.46,26.86c4.05-13.73,14.83-24.6,28.52-28.75
			C111.96,173.826,111.83,170.846,111.86,167.926z M64.63,66.766c-0.94-2.78-2.7-6.16-5.94-8c-4-2.28-10.21-2.14-17.98,0.31
			c3.46,4.89,8.21,9.88,13.35,10.9C57.25,70.616,60.79,69.536,64.63,66.766z M65.63,217.596c0-12.57-10.22-22.79-22.79-22.79
			c-12.56,0-22.78,10.22-22.78,22.79c0,12.56,10.22,22.78,22.78,22.78C55.41,240.376,65.63,230.156,65.63,217.596z"/>
	</g>
	<g>
	</g>
</g>
</svg>