<?xml version="1.0" encoding="iso-8859-1"?>
<!-- Uploaded to: SVG Repo, www.svgrepo.com, Generator: SVG Repo Mixer Tools -->
<svg height="800px" width="800px" version="1.1" id="Layer_1" xmlns="http://www.w3.org/2000/svg" xmlns:xlink="http://www.w3.org/1999/xlink" 
	 viewBox="0 0 511.999 511.999" xml:space="preserve">
<path style="fill:#D63434;" d="M495.705,229.325c-16.656-43.208-57.182-73.691-103.319-77.762
	c-30.498-3.968-52.457-26.139-60.799-35.927c-1.491-1.992-3.068-4.008-4.704-6.008c-0.503-0.711-1.056-1.377-1.655-1.991
	C275.839,49.007,194.83,28.153,123.211,55.761C30.771,91.394-15.445,195.59,20.189,288.032c7.703,19.98,18.731,38.198,32.78,54.152
	c3.151,3.845,25.526,29.939,68.986,51.25c41.705,20.449,112.092,40.526,210.589,20.102c29.16-5.163,59.197-13.531,89.274-24.87
	c0.038-0.016,0.078-0.03,0.114-0.045c0.228-0.086,0.456-0.179,0.678-0.279c22.061-9.636,39.675-21.806,52.357-36.164
	c0.093-0.107,0.184-0.214,0.272-0.321c4.521-5.384,8.608-11.224,12.155-17.354c0.095-0.165,0.19-0.332,0.277-0.501
	c0.228-0.422,0.452-0.817,0.68-1.193c0.108-0.183,0.215-0.369,0.319-0.555C506.137,300.559,508.702,263.042,495.705,229.325z
	 M459.589,315.904c-0.399,0.673-0.798,1.375-1.192,2.107c-2.519,4.323-5.401,8.438-8.577,12.239
	c-9.235,10.399-23.117,19.847-40.174,27.352c-28.116,10.572-56.108,18.355-83.203,23.133c-0.16,0.029-0.319,0.059-0.476,0.091
	c-0.078,0.017-0.162,0.036-0.243,0.053c-70.862,14.688-133.915,9.106-187.425-16.596c-39.896-19.162-59.358-43.031-59.504-43.212
	c-0.192-0.246-0.392-0.484-0.598-0.715c-11.525-13.033-20.569-27.948-26.883-44.326c-29.019-75.278,8.617-160.127,83.893-189.146
	c58.649-22.607,125.031-5.305,165.185,43.056c0.049,0.057,0.097,0.114,0.144,0.171c0.051,0.065,0.104,0.126,0.159,0.191
	c1.558,1.894,3.057,3.804,4.446,5.675c0.206,0.275,0.421,0.545,0.642,0.809c13.183,15.615,41.403,42.571,82.381,47.866
	c0.325,0.048,0.653,0.084,0.977,0.113c34.197,2.895,63.103,24.567,75.435,56.557C473.99,265.744,472.168,292.908,459.589,315.904z"
	/>
<g>
	<path style="fill:#E95353;" d="M380.143,449.48c13.472-3.884,28.112-9.475,41.677-14.589c0.038-0.016,0.078-0.03,0.114-0.045
		c0.228-0.086,0.456-0.179,0.678-0.279c22.061-9.636,39.675-21.806,52.357-36.164c0.093-0.107,0.184-0.214,0.272-0.321
		c4.521-5.384,8.608-11.224,12.155-17.354c0.095-0.165,0.19-0.332,0.277-0.501c0.228-0.422,0.452-0.817,0.68-1.192
		c0.108-0.183,0.215-0.369,0.319-0.555c13.939-25.295,18.377-54.297,12.999-82.118c-2.403,12.416-6.737,24.529-12.999,35.892
		c-0.104,0.186-0.211,0.372-0.319,0.555c-0.228,0.376-0.452,0.772-0.68,1.193c-0.086,0.169-0.182,0.335-0.277,0.5
		c-3.547,6.13-7.635,11.969-12.155,17.354c-0.089,0.107-0.179,0.214-0.272,0.321c-12.68,14.359-30.295,26.529-52.357,36.164
		c-0.222,0.099-0.45,0.192-0.678,0.279c-0.036,0.015-0.076,0.029-0.114,0.045c-30.077,11.34-60.115,19.706-89.274,24.87
		c-98.497,20.425-168.885,0.347-210.589-20.102c-43.46-21.312-65.836-47.407-68.988-51.251
		c-14.049-15.954-25.077-34.171-32.78-54.152c-5.25-13.623-8.711-27.499-10.521-41.375c-3.752,28.715-0.608,58.731,10.521,87.601
		c7.703,19.98,18.731,38.198,32.78,54.151c3.151,3.845,25.526,29.939,68.986,51.25c41.705,20.449,112.092,40.526,210.589,20.102
		c6.619-1.172,13.284-2.509,19.985-4.009"/>
	<path style="fill:#E95353;" d="M459.589,315.904c-0.399,0.673-0.798,1.375-1.192,2.107c-2.519,4.323-5.401,8.438-8.577,12.239
		c-9.235,10.399-23.117,19.847-40.174,27.352c-28.116,10.572-56.108,18.355-83.203,23.133c-0.16,0.029-0.319,0.059-0.476,0.091
		c-0.078,0.017-0.162,0.036-0.243,0.053c-70.862,14.688-133.915,9.106-187.425-16.596c-39.896-19.162-59.358-43.031-59.504-43.212
		c-0.192-0.246-0.392-0.484-0.598-0.715c-11.525-13.033-20.569-27.948-26.883-44.326c-29.019-75.278,8.617-160.127,83.893-189.146
		c58.649-22.607,125.031-5.305,165.185,43.056c0.049,0.057,0.097,0.114,0.144,0.171c0.051,0.065,0.104,0.126,0.159,0.191
		c1.558,1.894,3.057,3.804,4.446,5.675c0.206,0.275,0.421,0.545,0.642,0.809c13.183,15.615,41.403,42.571,82.381,47.866
		c0.325,0.048,0.653,0.084,0.977,0.113c34.197,2.895,63.103,24.567,75.435,56.557C473.99,265.744,472.168,292.908,459.589,315.904z"
		/>
</g>
<g style="opacity:0.15;">
	<path style="fill:#202020;" d="M164.822,364.283c-39.896-19.162-59.358-43.031-59.504-43.212c-0.192-0.246-0.392-0.484-0.598-0.715
		c-11.525-13.033-20.569-27.948-26.883-44.326c-29.019-75.278,8.617-160.127,83.893-189.146c12.836-4.948,26.042-7.984,39.261-9.201
		c-21.855-1.974-44.335,0.934-65.782,9.201c-75.276,29.02-112.911,113.869-83.893,189.146c6.313,16.378,15.358,31.292,26.883,44.326
		c0.205,0.23,0.404,0.469,0.598,0.715c0.147,0.182,19.609,24.051,59.504,43.212c37.721,18.118,80.19,26.224,126.788,24.293
		C228.793,387.005,195.26,378.904,164.822,364.283z"/>
</g>
<path style="fill:#FFF1CE;" d="M206.914,199.905c0,0,27.734,51.165,101.427,51.526c0,0-86.57,4.06-110.213,38.964
	C198.128,290.395,237.182,245.307,206.914,199.905z"/>
<g>
	<path style="fill:#202020;" d="M193.193,296.828c1.468,1.126,3.205,1.676,4.931,1.676c2.277,0,4.535-0.956,6.132-2.8
		c0.141-0.162,1.387-1.614,3.226-4.151c20.611-23.295,80.013-31.015,101.239-32.022c4.391-0.205,7.818-3.874,7.726-8.268
		c-0.092-4.394-3.67-7.916-8.065-7.938c-57.69-0.283-85.165-33.666-92.41-44.25c-0.73-1.228-1.507-2.46-2.311-3.667
		c-2.402-3.604-7.218-4.683-10.93-2.447c-3.712,2.237-5.008,6.998-2.944,10.808c0.09,0.165,0.902,1.645,2.48,3.988
		c18.261,31.224,1.022,61.743-7.517,73.728c-1.21,1.416-2.331,2.882-3.334,4.364C189.01,289.401,189.788,294.215,193.193,296.828z
		 M226.379,232.936c8.268,6.372,18.659,12.68,31.39,17.553c-11.829,2.729-24.231,6.47-35.401,11.587
		C225.115,253.437,226.917,243.526,226.379,232.936z"/>
	<path style="fill:#202020;" d="M503.269,226.41c-17.724-45.98-60.887-78.507-109.997-82.907
		c-27.562-3.654-47.773-24.087-55.354-32.936c-1.476-1.966-3.02-3.94-4.595-5.871c-0.638-0.878-1.332-1.713-2.07-2.491
		C295.488,59.873,243.24,35.597,187.86,35.597c-23.147,0-45.879,4.239-67.565,12.598c-46.729,18.012-83.676,53.211-104.034,99.11
		C2.165,179.086-2.783,213.318,1.481,246.884c-3.756,30.398,0.079,61.588,11.142,90.291c8.032,20.832,19.527,39.837,34.167,56.487
		c4.412,5.358,27.468,31.641,71.595,53.278c30.223,14.819,75.068,29.463,134.249,29.462c24.665,0,51.817-2.542,81.439-8.677
		c6.664-1.183,13.469-2.547,20.227-4.061c4.369-0.977,7.118-5.313,6.141-9.682c-0.979-4.369-5.308-7.122-9.684-6.141
		c-6.56,1.469-13.164,2.794-19.628,3.939c-0.077,0.014-0.156,0.028-0.232,0.044c-96.264,19.96-164.816,0.444-205.374-19.443
		c-42.308-20.744-63.957-46.267-66.286-49.109c-0.061-0.074-0.123-0.147-0.186-0.218c-13.414-15.233-23.944-32.632-31.3-51.71
		c-2.733-7.09-4.983-14.346-6.746-21.708c0.018,0.036,0.039,0.07,0.057,0.107c0.787,1.525,1.599,3.035,2.426,4.536
		c0.212,0.385,0.429,0.766,0.644,1.149c0.657,1.173,1.327,2.338,2.01,3.496c0.227,0.385,0.452,0.772,0.681,1.156
		c0.877,1.464,1.77,2.919,2.686,4.357c0.112,0.175,0.228,0.348,0.341,0.523c0.815,1.27,1.649,2.53,2.494,3.78
		c0.275,0.406,0.552,0.811,0.83,1.215c0.788,1.145,1.588,2.28,2.401,3.407c0.203,0.281,0.402,0.565,0.606,0.846
		c1,1.369,2.019,2.724,3.057,4.067c0.256,0.332,0.519,0.659,0.777,0.989c0.824,1.051,1.658,2.093,2.505,3.127
		c0.311,0.379,0.622,0.76,0.935,1.137c1.091,1.311,2.194,2.614,3.322,3.897c0.003,0.003,0.006,0.008,0.01,0.011
		c4.412,5.358,27.468,31.64,71.595,53.278c1.125,0.552,2.294,1.109,3.48,1.669c0.415,0.196,0.832,0.391,1.253,0.587
		c0.766,0.356,1.548,0.713,2.339,1.071c1.224,0.556,2.471,1.108,3.737,1.659c0.135,0.058,0.266,0.117,0.401,0.175
		c25.168,10.91,58.504,20.758,99.885,23.518c0.454,0.03,0.907,0.063,1.363,0.092c1.317,0.082,2.64,0.158,3.973,0.225
		c1.064,0.055,2.137,0.102,3.212,0.146c1.013,0.042,2.019,0.09,3.042,0.124c2.108,0.07,4.237,0.12,6.385,0.151
		c0.684,0.01,1.378,0.011,2.066,0.017c1.038,0.01,2.068,0.025,3.115,0.025c0.005,0,0.006,0,0.012,0c0.745,0,1.494-0.011,2.24-0.015
		c0.561-0.003,1.121-0.005,1.684-0.012c2.219-0.025,4.445-0.068,6.679-0.134c0.621-0.018,1.246-0.043,1.87-0.064
		c1.881-0.065,3.766-0.144,5.657-0.238c0.635-0.031,1.265-0.058,1.903-0.093c2.092-0.115,4.192-0.253,6.296-0.402
		c0.91-0.065,1.821-0.132,2.737-0.203c2.08-0.163,4.164-0.339,6.254-0.537c0.932-0.088,1.872-0.186,2.811-0.281
		c1.684-0.171,3.373-0.353,5.063-0.546c1.093-0.124,2.189-0.253,3.289-0.387c1.93-0.237,3.863-0.489,5.801-0.753
		c0.852-0.117,1.701-0.231,2.558-0.355c2.333-0.334,4.671-0.691,7.012-1.066c0.72-0.116,1.442-0.235,2.165-0.353
		c2.523-0.417,5.05-0.855,7.582-1.32c0.453-0.083,0.91-0.172,1.364-0.257c2.774-0.518,5.551-1.058,8.332-1.633
		c0.043-0.009,0.085-0.016,0.129-0.025c13.693-2.429,27.572-5.558,41.551-9.349c16.258-4.408,32.651-9.714,49.052-15.898
		c0.059-0.023,0.118-0.045,0.176-0.068c0.007-0.002,0.013-0.005,0.021-0.008c0.352-0.135,0.701-0.279,0.98-0.404
		c1.446-0.631,2.875-1.274,4.286-1.927c2.821-1.307,5.571-2.656,8.248-4.047c2.097-1.09,4.135-2.213,6.141-3.354
		c3.118-1.773,6.139-3.6,9.036-5.494c0.07-0.045,0.137-0.094,0.208-0.139c7.06-4.633,13.463-9.624,19.176-14.961
		c2.885-2.695,5.596-5.477,8.13-8.346c0.134-0.155,0.266-0.309,0.368-0.431c1.184-1.411,2.339-2.852,3.467-4.32
		c0.366-0.477,0.711-0.972,1.071-1.454c0.747-1.001,1.497-1.999,2.217-3.023c0.43-0.613,0.837-1.244,1.257-1.866
		c0.622-0.918,1.249-1.829,1.847-2.764c0.435-0.678,0.844-1.373,1.266-2.058c0.485-0.788,0.986-1.565,1.454-2.365
		c-2.164,12.292-6.341,24.244-12.443,35.318c-0.07,0.128-0.146,0.255-0.166,0.293c-0.295,0.485-0.584,0.996-0.879,1.539
		c-0.028,0.054-0.046,0.085-0.073,0.141l-0.09,0.159c-3.316,5.733-7.136,11.184-11.372,16.23l-0.116,0.138
		c-11.895,13.47-28.558,24.944-49.591,34.131c-0.079,0.036-0.16,0.068-0.243,0.099c-0.07,0.026-0.053,0.019-0.122,0.048
		c-0.012,0.005-0.026,0.011-0.043,0.017l-2.091,0.789c-13.006,4.907-26.455,9.981-38.903,13.57
		c-4.302,1.24-6.784,5.735-5.545,10.036c1.241,4.301,5.736,6.788,10.036,5.544c13.073-3.768,26.831-8.959,40.136-13.979l2.155-0.814
		c0.059-0.023,0.117-0.044,0.176-0.068c0.005-0.002,0.011-0.004,0.017-0.007c0.353-0.135,0.703-0.28,0.984-0.405
		c23.148-10.112,41.716-22.972,55.223-38.268c0.134-0.155,0.266-0.309,0.37-0.433c4.815-5.737,9.177-11.962,12.979-18.535
		c0.138-0.241,0.275-0.483,0.403-0.73c0.151-0.278,0.303-0.546,0.504-0.878c0.142-0.24,0.282-0.484,0.435-0.759
		c14.437-26.199,19.434-56.67,14.147-85.985C514.13,273.171,511.975,248.992,503.269,226.41z M31.083,153.88
		c18.602-41.941,52.357-74.101,95.044-90.555c19.817-7.639,40.587-11.513,61.732-11.513c50.678,0,98.487,22.251,131.167,61.049
		c0.129,0.153,0.264,0.301,0.403,0.444c0.296,0.303,0.575,0.639,0.83,1c0.11,0.158,0.226,0.309,0.347,0.458
		c1.543,1.884,3.052,3.812,4.487,5.73c0.103,0.137,0.21,0.271,0.321,0.402c8.684,10.189,32.49,34.357,65.923,38.708
		c0.111,0.014,0.222,0.026,0.334,0.036c43.064,3.801,80.929,32.299,96.466,72.602c7.779,20.181,9.576,41.82,5.578,62.544
		c-0.002,0.012-0.007,0.024-0.009,0.036c-1.131,5.842-2.71,11.565-4.72,17.131c-0.034,0.092-0.068,0.183-0.102,0.275
		c-0.451,1.238-0.924,2.467-1.417,3.688c-0.062,0.152-0.121,0.306-0.183,0.458c-0.524,1.283-1.071,2.558-1.643,3.821
		c-0.072,0.159-0.148,0.317-0.222,0.476c-0.485,1.062-0.99,2.116-1.509,3.163c-0.152,0.308-0.306,0.617-0.462,0.925
		c-0.603,1.192-1.222,2.378-1.867,3.551l-0.166,0.293c-0.295,0.484-0.584,0.996-0.879,1.539c-0.029,0.054-0.046,0.086-0.075,0.142
		l-0.089,0.158c-2.488,4.299-5.258,8.44-8.275,12.372c-1.005,1.31-2.038,2.597-3.097,3.857l-0.116,0.138
		c-11.895,13.47-28.558,24.944-49.591,34.131c-0.079,0.036-0.16,0.068-0.243,0.099c-0.07,0.026-0.056,0.021-0.125,0.049
		c-0.012,0.005-0.025,0.011-0.042,0.017c-24.036,9.059-48.034,16.187-71.555,21.262c-5.428,1.171-10.83,2.233-16.202,3.185
		c-0.078,0.014-0.156,0.028-0.232,0.044c-2.734,0.566-5.44,1.093-8.129,1.597c-0.417,0.078-0.835,0.159-1.251,0.237
		c-2.464,0.454-4.904,0.877-7.33,1.279c-0.659,0.109-1.318,0.218-1.976,0.324c-2.292,0.37-4.568,0.718-6.825,1.042
		c-0.762,0.109-1.523,0.212-2.284,0.317c-1.886,0.26-3.761,0.506-5.623,0.735c-0.94,0.116-1.881,0.228-2.82,0.337
		c-1.776,0.206-3.54,0.398-5.295,0.576c-0.849,0.086-1.698,0.175-2.546,0.255c-2.067,0.197-4.119,0.375-6.154,0.536
		c-0.785,0.062-1.568,0.118-2.352,0.175c-1.953,0.142-3.896,0.271-5.819,0.379c-0.513,0.029-1.027,0.057-1.539,0.084
		c-2.046,0.107-4.073,0.193-6.087,0.264c-0.546,0.019-1.091,0.04-1.636,0.056c-2.217,0.068-4.417,0.117-6.594,0.142
		c-0.378,0.004-0.756,0.004-1.134,0.008c-1.869,0.015-3.721,0.012-5.561-0.002c-0.603-0.005-1.21-0.007-1.81-0.014
		c-2.125-0.028-4.232-0.074-6.316-0.141c-0.728-0.024-1.442-0.059-2.164-0.088c-1.29-0.05-2.573-0.105-3.847-0.17
		c-1.172-0.059-2.337-0.125-3.495-0.197c-0.635-0.039-1.265-0.082-1.895-0.125c-40.173-2.732-71.873-12.499-94.258-22.157
		c-0.195-0.084-0.387-0.169-0.58-0.253c-1.102-0.479-2.176-0.957-3.232-1.433c-0.802-0.363-1.601-0.726-2.384-1.091
		c-0.373-0.174-0.742-0.347-1.109-0.519c-1.126-0.532-2.244-1.064-3.331-1.597c-37.02-18.152-58.222-39.961-64.505-47.034
		c-0.897-1.011-1.491-1.72-1.781-2.076c-0.061-0.074-0.122-0.147-0.186-0.218c-13.414-15.233-23.944-32.632-31.3-51.71
		c-0.576-1.496-1.129-3.001-1.663-4.512c-0.128-0.359-0.246-0.72-0.371-1.08c-0.421-1.216-0.832-2.435-1.226-3.66
		c-0.096-0.297-0.189-0.596-0.283-0.893c-0.448-1.422-0.882-2.847-1.293-4.279c-0.018-0.063-0.037-0.125-0.054-0.188
		c-2.333-8.165-4.059-16.494-5.156-24.897c-0.031-0.24-0.075-0.476-0.125-0.708C13.678,214.222,18.198,182.932,31.083,153.88z"/>
	<path style="fill:#202020;" d="M46.385,285.355c0.922,2.111,1.89,4.197,2.9,6.259c0.742,1.512,1.516,3.005,2.305,4.489
		c0.589,1.107,1.19,2.206,1.805,3.297c4.178,7.415,8.951,14.464,14.309,21.095c0.189,0.233,0.385,0.463,0.575,0.696
		c0.535,0.655,1.07,1.31,1.617,1.957c0.439,0.52,0.89,1.031,1.337,1.546c0.307,0.353,0.608,0.71,0.918,1.06
		c0.091,0.103,0.178,0.208,0.265,0.317c0.025,0.031,0.051,0.065,0.077,0.096c0.836,1.034,20.952,25.565,62.299,45.424
		c35.068,16.844,74.425,25.385,116.976,25.385c24.051,0,49.488-2.746,75.628-8.164l0.457-0.094
		c27.582-4.863,56.061-12.779,84.648-23.529c0.138-0.053,0.276-0.109,0.412-0.168c18.116-7.97,32.976-18.132,42.971-29.39
		c0.054-0.062,0.108-0.123,0.159-0.186c2.595-3.108,5.016-6.411,7.223-9.861c0.736-1.149,1.449-2.315,2.136-3.495
		c0.045-0.077,0.089-0.157,0.132-0.236c0.341-0.632,0.686-1.239,1.031-1.821c0.046-0.079,0.093-0.159,0.137-0.241
		c13.723-25.089,15.707-54.753,5.441-81.386c-12.84-33.311-42.148-56.353-77.201-61.141c-1.685-0.23-3.38-0.432-5.09-0.577
		c-0.171-0.015-0.343-0.034-0.515-0.058c-0.044-0.006-0.089-0.013-0.133-0.019c-38.27-4.944-64.811-30.351-77.212-45.04
		c-0.13-0.155-0.254-0.313-0.341-0.426c-1.444-1.946-3.024-3.962-4.696-5.994c-0.01-0.013-0.041-0.049-0.069-0.081
		c-0.011-0.013-0.018-0.023-0.027-0.032c-0.003-0.004-0.008-0.009-0.011-0.014c-0.009-0.011-0.017-0.023-0.027-0.034l-0.191-0.229
		c-3.681-4.433-7.578-8.628-11.668-12.578c-28.641-27.65-66.822-43.221-107.111-43.221c-19.034,0-37.726,3.485-55.558,10.358
		C52.846,109.945,13.126,199.498,43.751,278.945C44.585,281.107,45.462,283.244,46.385,285.355z M70.908,149.826
		c1.178-1.877,2.402-3.727,3.67-5.548c0.635-0.911,1.28-1.814,1.936-2.71c15.097-20.606,36.06-37.267,61.613-47.118
		c10.974-4.231,22.312-7.026,33.861-8.361c5.249-0.606,10.543-0.911,15.866-0.911c41.206,0,79.952,18.204,106.304,49.943
		c0.019,0.023,0.065,0.076,0.089,0.105c0.075,0.093,0.151,0.184,0.229,0.277c1.487,1.81,2.886,3.595,4.195,5.36
		c0.293,0.387,0.595,0.769,0.921,1.156c0.712,0.844,1.478,1.727,2.274,2.63c14.37,16.293,42.256,41.3,81.975,47.565
		c1.069,0.169,2.139,0.334,3.226,0.476c0.456,0.066,0.916,0.117,1.395,0.159c31.079,2.631,57.347,22.323,68.554,51.394
		c1.067,2.767,1.974,5.572,2.724,8.406c5.247,19.832,2.753,40.99-7.198,59.253c-0.405,0.688-0.81,1.4-1.212,2.14
		c-0.69,1.179-1.418,2.335-2.166,3.478c-1.696,2.593-3.525,5.089-5.484,7.442c-8.423,9.448-21.244,18.135-37.095,25.134
		c-21.958,8.246-43.824,14.753-65.246,19.433c-5.484,1.198-10.941,2.282-16.362,3.238c-0.131,0.025-0.27,0.051-0.424,0.081
		c-0.063,0.012-0.126,0.024-0.188,0.036c-0.038,0.009-0.075,0.016-0.112,0.024c-0.007,0.001-0.161,0.035-0.169,0.037
		c-3.129,0.649-6.248,1.257-9.354,1.826c-21.743,3.98-42.881,5.994-62.959,5.994c-40.101,0-77.095-8.001-109.956-23.786
		c-2.234-1.073-4.397-2.162-6.499-3.262c-0.085-0.044-0.175-0.089-0.261-0.134c-1.833-0.962-3.604-1.934-5.336-2.907
		c-0.33-0.185-0.669-0.37-0.995-0.556c-0.325-0.185-0.637-0.371-0.959-0.557c-0.686-0.396-1.376-0.791-2.046-1.188
		c-0.286-0.17-0.56-0.339-0.844-0.509c-0.69-0.412-1.38-0.825-2.052-1.237c-0.309-0.19-0.604-0.379-0.91-0.569
		c-0.631-0.392-1.266-0.785-1.881-1.176c-0.269-0.172-0.526-0.342-0.792-0.513c-0.633-0.408-1.27-0.816-1.886-1.222
		c-0.439-0.289-0.859-0.576-1.29-0.864c-0.428-0.288-0.866-0.575-1.286-0.862c-0.393-0.268-0.771-0.534-1.157-0.801
		c-0.437-0.303-0.882-0.606-1.309-0.907c-0.63-0.443-1.24-0.882-1.848-1.321c-0.168-0.121-0.343-0.243-0.509-0.363
		c-0.568-0.412-1.114-0.818-1.663-1.225c-0.195-0.145-0.399-0.292-0.591-0.436c-0.471-0.352-0.923-0.699-1.38-1.049
		c-0.253-0.193-0.517-0.389-0.765-0.582c-0.355-0.273-0.691-0.54-1.037-0.811c-0.334-0.262-0.678-0.526-1.003-0.785
		c-0.319-0.253-0.622-0.499-0.932-0.75c-0.333-0.267-0.673-0.538-0.997-0.802c-0.328-0.267-0.636-0.525-0.953-0.788
		c-0.29-0.24-0.589-0.484-0.871-0.72c-0.383-0.321-0.746-0.632-1.113-0.946c-0.198-0.169-0.406-0.343-0.6-0.51
		c-0.423-0.364-0.826-0.718-1.228-1.07c-0.124-0.109-0.258-0.224-0.381-0.332c-0.316-0.279-0.612-0.547-0.915-0.817
		c-0.196-0.175-0.4-0.356-0.59-0.528c-0.185-0.168-0.355-0.325-0.534-0.489c-0.291-0.266-0.587-0.535-0.865-0.792
		c-0.08-0.073-0.151-0.143-0.229-0.215c-0.362-0.338-0.721-0.673-1.059-0.995c-0.061-0.057-0.114-0.11-0.174-0.166
		c-0.347-0.331-0.688-0.657-1.009-0.97c-0.015-0.015-0.029-0.028-0.044-0.044c-3.73-3.633-5.698-5.966-5.903-6.214
		c-0.102-0.13-0.204-0.241-0.307-0.366c-0.181-0.219-0.363-0.446-0.538-0.643c-8.163-9.229-15.008-19.461-20.437-30.529
		c-1.81-3.689-3.462-7.472-4.954-11.341c-15.846-41.108-10.65-85.238,10.294-120.453C69.741,151.71,70.319,150.765,70.908,149.826z"
		/>
</g>
</svg>