<svg width="12" height="12" viewBox="0 0 12 12" fill="none" xmlns="http://www.w3.org/2000/svg">
<g clip-path="url(#clip0_2_6584)">
<path d="M9.5 5.5H6.5V2.5C6.5 2.36739 6.44732 2.24021 6.35355 2.14645C6.25979 2.05268 6.13261 2 6 2C5.86739 2 5.74021 2.05268 5.64645 2.14645C5.55268 2.24021 5.5 2.36739 5.5 2.5V5.5H2.5C2.36739 5.5 2.24021 5.55268 2.14645 5.64645C2.05268 5.74021 2 5.86739 2 6C2 6.13261 2.05268 6.25979 2.14645 6.35355C2.24021 6.44732 2.36739 6.5 2.5 6.5H5.5V9.5C5.5 9.63261 5.55268 9.75979 5.64645 9.85355C5.74021 9.94732 5.86739 10 6 10C6.13261 10 6.25979 9.94732 6.35355 9.85355C6.44732 9.75979 6.5 9.63261 6.5 9.5V6.5H9.5C9.63261 6.5 9.75979 6.44732 9.85355 6.35355C9.94732 6.25979 10 6.13261 10 6C10 5.86739 9.94732 5.74021 9.85355 5.64645C9.75979 5.55268 9.63261 5.5 9.5 5.5Z" fill="white"/>
</g>
<defs>
<clipPath id="clip0_2_6584">
<rect width="12" height="12" fill="white"/>
</clipPath>
</defs>
</svg>
